<svg xmlns="http://www.w3.org/2000/svg" viewBox="0 0 19 12.68"><path d="M15.05,7.63A5,5,0,1,1,5,7.63a.44.44,0,0,0-.43-.43H.94a.44.44,0,0,0-.43.43A9.6,9.6,0,0,0,10,17.34a9.58,9.58,0,0,0,9.5-9.71.44.44,0,0,0-.43-.43h-3.6a.43.43,0,0,0,0,.85h3.6l-.42-.42A8.74,8.74,0,0,1,10,16.49,8.72,8.72,0,0,1,1.36,7.63l-.42.42h3.6l-.42-.42A6,6,0,0,0,10,13.74,5.93,5.93,0,0,0,15.9,7.63C15.87,7.08,15,7.08,15.05,7.63Z" transform="translate(-0.51 -4.66)"/><path d="M12.25,7.33,9.71,9.87h.6L7.76,7.33v.6l2.55-2.55h-.6l2.54,2.55a.42.42,0,0,0,.6-.6L10.31,4.78a.44.44,0,0,0-.6,0L7.16,7.33a.43.43,0,0,0,0,.6l2.55,2.54a.42.42,0,0,0,.6,0l2.54-2.54A.42.42,0,0,0,12.25,7.33Z" transform="translate(-0.51 -4.66)"/></svg>