<svg xmlns="http://www.w3.org/2000/svg" viewBox="0 0 12.54 17.49"><path d="M3.73,8.25A9.07,9.07,0,0,1,4.2,5.17,5.56,5.56,0,0,1,5.5,3.05a5.15,5.15,0,0,1,2-1.23,8.12,8.12,0,0,1,2.58-.4,7.37,7.37,0,0,1,2.68.46,5.39,5.39,0,0,1,1.94,1.28,5.52,5.52,0,0,1,1.18,1.93,7.06,7.06,0,0,1,.4,2.44,6.73,6.73,0,0,1-1.2,4.14A6.5,6.5,0,0,1,11.84,14l2.71,1.33a2.22,2.22,0,0,1,1.19,1.3,3.31,3.31,0,0,1-.35,2.33L8.27,15.35a10.35,10.35,0,0,1-2.36-1.51,6,6,0,0,1-1.38-1.65,5.66,5.66,0,0,1-.64-1.85A12.58,12.58,0,0,1,3.73,8.25Zm5.91,4.64.84.43a14.52,14.52,0,0,0,1-1,5.39,5.39,0,0,0,.77-1.09,5,5,0,0,0,.48-1.28,7.51,7.51,0,0,0,.16-1.67,5.22,5.22,0,0,0-.76-3.14A2.51,2.51,0,0,0,10,4.1a2.54,2.54,0,0,0-2.17,1,5.15,5.15,0,0,0-.77,3.14,8.18,8.18,0,0,0,.15,1.68,4,4,0,0,0,.48,1.22,3.77,3.77,0,0,0,.8.94A8.38,8.38,0,0,0,9.64,12.89Z" transform="translate(-3.73 -1.42)"/></svg>