<svg xmlns="http://www.w3.org/2000/svg" xmlns:xlink="http://www.w3.org/1999/xlink" viewBox="0 0 300 300"><defs><style>.a{fill:#320d45;}.b{fill:#fff;stroke-miterlimit:10;stroke-width:6.28px;stroke:url(#a);}</style><linearGradient id="a" x1="66.93" y1="150" x2="233.18" y2="150" gradientUnits="userSpaceOnUse"><stop offset="0" stop-color="#00f5ff"/><stop offset="0.88" stop-color="#00e87d"/><stop offset="1" stop-color="#00e66a"/></linearGradient></defs><rect class="a" width="300" height="300"/><path class="b" d="M196.88,104.3c-8.41-10-23.8-16.4-36.57-16.4s-28.74,4-28.74,19.09c0,12.63,12.19,16.66,31.64,22.31,27.87,8.33,63.87,19.36,63.87,57.26,0,43.81-38,63.44-78.68,63.44-29.32,0-58.93-9.95-76.93-27.42L104,191.93c9.87,11.56,28.16,20.17,44.41,20.17,15.1,0,28.45-5.38,28.45-20.7,0-14.52-15.67-19.09-42.67-27.15-26.13-7.8-52.55-20.17-52.55-54.57C81.63,67.47,122.86,50,161.18,50c23.22,0,49.35,8.06,67.35,23.39Z"/></svg>