<?xml version="1.0" encoding="UTF-8"?><svg id="Layer_2" xmlns="http://www.w3.org/2000/svg" xmlns:xlink="http://www.w3.org/1999/xlink" viewBox="0 0 28.36 30.37"><defs><style>.cls-1{fill:#fff;}.cls-2{fill:#00a59b;}.cls-3{fill:url(#linear-gradient);}</style><linearGradient id="linear-gradient" x1="0" y1="1435.19" x2="25.78" y2="1435.19" gradientTransform="translate(0 1450.37) scale(1 -1)" gradientUnits="userSpaceOnUse"><stop offset="0" stop-color="#00d0d1"/><stop offset="1" stop-color="#2affc0"/></linearGradient></defs><g id="Favicon"><g><path class="cls-3" d="M2.41,25.5c.97,1.16,2.05,1.86,2.83,2.27,.36,.19,.79-.06,.82-.46,.06-.75,.14-1.36,.29-1.98,.32-1.22,.41-1.61,1.15-2.94,.65-1.13,1.33-1.92,1.87-2.54,.5-.58,1.26-1.45,2.38-2.35,.59-.44,2-1.61,2.69-2.17,.15-.12,.49-.38,.76-.61,.85-.72,2.33-2.32,3.01-3.23,.96-1.22,1.14-1.74,1.3-1.74,.31,.1,.13,.75-1.22,3.07-.38,.66-1,1.6-1.63,2.35-.98,1.2-2.97,2.91-3.92,3.72-1.71,1.53-2.84,3.07-3.58,4.3-.5,.84-.73,1.39-.79,1.53-.06,.15-.31,.78-.47,1.51-1.07,4.61,.35,4.79,5.69,3.33,1.82-.46,3.28-.96,4.27-1.33,6.18-3.27,8.76-10.97,7.65-20.71,0-.24-.43-4.78-1.08-7.11-.12-.42-.64-.56-.95-.25-1.88,1.91-3.66,3.09-4.99,3.82-3.46,1.92-5.14,1.59-10.85,4.29C3.15,10.33-.37,13.95,.03,19.58c.05,1.29,.83,4.18,2.38,5.93Z"/><path class="cls-2" d="M19.55,20.63h0s1.81-3.31,1.81-3.31h0c.12-.22,.44-.22,.56,0h0s1.81,3.31,1.81,3.31h0c.13,.25,.34,.45,.58,.58h0s3.31,1.81,3.31,1.81h0c.22,.12,.22,.44,0,.56h0s-3.31,1.81-3.31,1.81h0c-.25,.13-.45,.34-.58,.58h0s-1.81,3.31-1.81,3.31h0c-.12,.22-.44,.22-.56,0h0s-1.81-3.31-1.81-3.31h0c-.13-.25-.34-.45-.58-.58h0s-3.31-1.81-3.31-1.81h0c-.22-.12-.22-.44,0-.56h0s3.31-1.81,3.31-1.81h0c.25-.13,.45-.34,.58-.58Z"/><path class="cls-1" d="M21.64,30.03c-.32,0-.61-.17-.77-.44l-.02-.03-1.81-3.32c-.08-.15-.2-.27-.35-.35l-3.31-1.81c-.29-.16-.46-.46-.46-.78,0-.32,.17-.61,.44-.77l.03-.02,3.31-1.81c.15-.08,.27-.2,.35-.35l1.83-3.35c.16-.27,.45-.44,.77-.44s.63,.18,.78,.46l1.81,3.32c.08,.15,.2,.26,.35,.35l3.34,1.83c.27,.16,.44,.45,.44,.77,0,.33-.18,.63-.46,.78l-3.31,1.81c-.15,.08-.27,.2-.35,.35h0s-1.81,3.32-1.81,3.32c-.16,.29-.46,.46-.78,.46Zm.22-1.01h0s0,0,0,0Zm-1.79-3.26l1.39,2.54c.08,.14,.28,.14,.35,0l1.41-2.58c.18-.33,.45-.61,.79-.8h.02s2.58-1.43,2.58-1.43c.14-.08,.14-.28,0-.35l-2.61-1.43c-.33-.19-.6-.46-.79-.8l-1.41-2.58c-.08-.14-.28-.14-.35,0l-1.41,2.58c-.17,.32-.43,.58-.73,.76h0s-2.66,1.46-2.66,1.46c-.14,.08-.14,.27,0,.35l2.66,1.46c.31,.19,.56,.45,.73,.76l.03,.05Zm-4.14-2.22h0s0,0,0,0Z"/></g></g></svg>