<svg xmlns="http://www.w3.org/2000/svg" xmlns:xlink="http://www.w3.org/1999/xlink" viewBox="0 0 100.64 21.57"><defs><style>.a,.e,.k{fill:none;}.b{isolation:isolate;}.c{fill:#fff;}.d{clip-path:url(#a);}.e,.k{stroke:#1f7ea1;stroke-miterlimit:10;}.e{stroke-width:0.06px;}.f{clip-path:url(#b);}.g{clip-path:url(#c);}.h{clip-path:url(#d);}.i{clip-path:url(#e);}.j{clip-path:url(#f);}.k{stroke-width:0.12px;}.l{clip-path:url(#g);}.m{clip-path:url(#h);}.n{clip-path:url(#i);}.o{clip-path:url(#j);}.p{clip-path:url(#k);}.q{clip-path:url(#l);}.r{clip-path:url(#m);}.s{clip-path:url(#n);}.t{clip-path:url(#o);}</style><clipPath id="a" transform="translate(-1.51 -1.22)"><rect class="a" x="17.97" y="9.04" width="4.53" height="4.89"/></clipPath><clipPath id="b" transform="translate(-1.51 -1.22)"><rect class="a" x="7.76" y="1.22" width="8.77" height="6.96"/></clipPath><clipPath id="c" transform="translate(-1.51 -1.22)"><rect class="a" x="3.45" y="1.22" width="8.77" height="6.24"/></clipPath><clipPath id="d" transform="translate(-1.51 -1.22)"><rect class="a" x="1.5" y="5.74" width="7.98" height="6.76"/></clipPath><clipPath id="e" transform="translate(-1.51 -1.22)"><rect class="a" x="1.5" y="10.77" width="3.96" height="4.74"/></clipPath><clipPath id="f" transform="translate(-1.51 -1.22)"><rect class="a" x="1.5" y="1.22" width="21" height="16.16"/></clipPath><clipPath id="g" transform="translate(-1.51 -1.22)"><rect class="a" x="1.5" y="12.96" width="11.58" height="9.82"/></clipPath><clipPath id="h" transform="translate(-1.51 -1.22)"><rect class="a" x="11.21" y="1.22" width="0.58" height="0.49"/></clipPath><clipPath id="i" transform="translate(-1.51 -1.22)"><rect class="a" x="10.35" y="1.22" width="2.16" height="1.36"/></clipPath><clipPath id="j" transform="translate(-1.51 -1.22)"><rect class="a" x="21.99" y="9.62" width="0.51" height="0.58"/></clipPath><clipPath id="k" transform="translate(-1.51 -1.22)"><rect class="a" x="21.13" y="8.75" width="1.37" height="2.16"/></clipPath><clipPath id="l" transform="translate(-1.51 -1.22)"><rect class="a" x="1.5" y="8.9" width="0.51" height="0.58"/></clipPath><clipPath id="m" transform="translate(-1.51 -1.22)"><rect class="a" x="1.5" y="8.04" width="1.37" height="2.16"/></clipPath><clipPath id="n" transform="translate(-1.51 -1.22)"><rect class="a" x="1.5" y="12.35" width="1.66" height="2.16"/></clipPath><clipPath id="o" transform="translate(-1.51 -1.22)"><rect class="a" x="9.34" y="21.41" width="2.16" height="1.38"/></clipPath></defs><g class="b"><path class="c" d="M30.18,4.49h2.29a5.62,5.62,0,0,1,1.34.14,2.07,2.07,0,0,1,.94.49,3,3,0,0,1,.68,1A14.06,14.06,0,0,1,36,7.75l3.42,11.13H35.94l-1.12-3.64H30.5l-1,3.64H26Zm1,8.19H34L32.6,8h-.11Z" transform="translate(-1.51 -1.22)"/><path class="c" d="M49.92,4.6c0,.16,0,.38,0,.64s0,.53,0,.83a7.89,7.89,0,0,1-.1.85,3.83,3.83,0,0,1-.16.7H47v8.23h2.9c0,.17,0,.38,0,.64s0,.54,0,.83a7.33,7.33,0,0,1-.1.85,3.76,3.76,0,0,1-.16.71H40.68v-3H43.5V7.62H40.68v-3Z" transform="translate(-1.51 -1.22)"/><path class="c" d="M55.93,11.74a9.47,9.47,0,0,1,.5-3.26,6.07,6.07,0,0,1,1.45-2.3,5.82,5.82,0,0,1,2.3-1.35,9.64,9.64,0,0,1,3-.44l1,0q.54,0,1,.09c.35,0,.67.09,1,.14a7,7,0,0,1,.78.16q0,.29,0,.69c0,.26,0,.53-.09.8s-.08.52-.12.75a5.23,5.23,0,0,1-.16.59L66,7.5c-.28,0-.58-.09-.91-.12s-.64-.06-1-.09l-.9,0A3.39,3.39,0,0,0,60.45,8.4a5.16,5.16,0,0,0-.93,3.34,5.17,5.17,0,0,0,.93,3.34,3.42,3.42,0,0,0,2.78,1.13l1.06,0c.36,0,.72-.05,1.07-.09s.67-.07,1-.11a5.37,5.37,0,0,0,.76-.15c0,.18,0,.41,0,.67s0,.54-.09.81-.08.53-.12.77a5.9,5.9,0,0,1-.16.59c-.18,0-.41.1-.68.15s-.57.1-.89.14-.63.07-1,.09-.64,0-.92,0a9.63,9.63,0,0,1-3-.45,5.82,5.82,0,0,1-2.3-1.35A6,6,0,0,1,56.43,15,9.41,9.41,0,0,1,55.93,11.74Z" transform="translate(-1.51 -1.22)"/><path class="c" d="M72.27,8.38v5.94A4.36,4.36,0,0,0,72.5,16a.9.9,0,0,0,.94.53,1.2,1.2,0,0,0,1-.67,5.84,5.84,0,0,0,.67-1.79,18.81,18.81,0,0,0,.37-2.61c.08-1,.11-2,.11-3.07H79v10.5H75.62V15.94a7.9,7.9,0,0,1-.72,1.51,3.83,3.83,0,0,1-.84,1,3,3,0,0,1-1,.52,3.81,3.81,0,0,1-1.08.16,3.61,3.61,0,0,1-1.12-.19,2.63,2.63,0,0,1-1-.64A3.3,3.3,0,0,1,69.18,17a5.92,5.92,0,0,1-.28-1.93V8.38Z" transform="translate(-1.51 -1.22)"/><path class="c" d="M81,13.63a6.38,6.38,0,0,1,.42-2.42A4.58,4.58,0,0,1,84.4,8.49a7.37,7.37,0,0,1,2.25-.32,4.87,4.87,0,0,1,3.69,1.34,5.53,5.53,0,0,1,1.29,4,4,4,0,0,1-.72,1.15c-1.36,0-2.54,0-3.57,0a21.53,21.53,0,0,1-2.81-.22A2.7,2.7,0,0,0,85.31,16a2.63,2.63,0,0,0,1.87.57,17.82,17.82,0,0,0,2.19-.12A12.31,12.31,0,0,0,91,16.1a4.84,4.84,0,0,1,0,.63c0,.24,0,.48-.08.71s-.08.45-.13.67-.1.4-.15.56a9.71,9.71,0,0,1-1.42.29,14.42,14.42,0,0,1-2,.13,6.78,6.78,0,0,1-4.55-1.37A5.09,5.09,0,0,1,81,13.63Zm3.47-.42a13.16,13.16,0,0,1,1.89-.35c.59-.06,1.22-.1,1.91-.12a2.8,2.8,0,0,0-.53-1.51,1.58,1.58,0,0,0-1.28-.5,1.69,1.69,0,0,0-1.41.64A3.1,3.1,0,0,0,84.51,13.21Z" transform="translate(-1.51 -1.22)"/><path class="c" d="M96.73,16.67a8.81,8.81,0,0,0,1,0,1.89,1.89,0,0,0,.59-.14.59.59,0,0,0,.32-.25.72.72,0,0,0,.09-.37.6.6,0,0,0-.41-.58,4.3,4.3,0,0,0-1-.32l-1.34-.27a4.5,4.5,0,0,1-1.33-.49,2.9,2.9,0,0,1-1-.92,2.76,2.76,0,0,1-.41-1.6A2.93,2.93,0,0,1,94.55,9a7.08,7.08,0,0,1,3.82-.87,10.56,10.56,0,0,1,1.77.14,12.32,12.32,0,0,1,1.53.34q0,.26-.06.57c0,.21,0,.42-.09.64s-.09.42-.13.63a3.07,3.07,0,0,1-.15.53,13.86,13.86,0,0,0-1.49-.32,8,8,0,0,0-1.38-.12,3.34,3.34,0,0,0-1.35.2.66.66,0,0,0-.4.62.57.57,0,0,0,.41.54,7.38,7.38,0,0,0,1,.27l1.34.25a4.87,4.87,0,0,1,1.33.46,3,3,0,0,1,1,.93,2.86,2.86,0,0,1,.41,1.62,3.39,3.39,0,0,1-.39,1.7,3.11,3.11,0,0,1-1.06,1.13,4.51,4.51,0,0,1-1.59.61,10.26,10.26,0,0,1-2,.18c-.3,0-.62,0-1-.05s-.72-.06-1.07-.1-.67-.1-.95-.16a2.84,2.84,0,0,1-.62-.18,8.63,8.63,0,0,1-.33-1.2A10.79,10.79,0,0,1,93,16.19l.77.17.95.15c.34,0,.68.09,1,.12S96.42,16.67,96.73,16.67Z" transform="translate(-1.51 -1.22)"/></g><g class="d"><path class="e" d="M22.31,9.92H18.85L20.69,13Z" transform="translate(-1.51 -1.22)"/></g><path class="e" d="M16,13.1l2.81-3.18L15.64,7.33Z" transform="translate(-1.51 -1.22)"/><path class="e" d="M19.07,4.26l-.22,5.66L15.64,7.33Z" transform="translate(-1.51 -1.22)"/><g class="f"><path class="e" d="M11.34,1.5l4.3,5.83-7-.78Z" transform="translate(-1.51 -1.22)"/></g><g class="g"><path class="e" d="M8.62,6.55,4.4,3.61,11.34,1.5Z" transform="translate(-1.51 -1.22)"/></g><path class="e" d="M16,13.1,8.62,6.55,11,12.81Z" transform="translate(-1.51 -1.22)"/><path class="e" d="M12.33,15.57,11,12.81,10.24,15Z" transform="translate(-1.51 -1.22)"/><g class="h"><path class="e" d="M8.62,6.55,1.74,9.17,4.55,11.6Z" transform="translate(-1.51 -1.22)"/></g><g class="i"><path class="e" d="M3.57,14.6l1-3L2,13.5Z" transform="translate(-1.51 -1.22)"/></g><path class="e" d="M11,12.81,7.82,14.32,4.55,11.6Z" transform="translate(-1.51 -1.22)"/><g class="j"><path class="k" d="M22.31,9.92,19,4.26,11.44,1.45l-7,2.16L1.74,9.17,2,13.55,3.6,14.66l4.26-.39,4.43,1.36,3.64-2.51,4.77-.2Z" transform="translate(-1.51 -1.22)"/></g><g class="l"><path class="k" d="M3.51,14.6,3.1,16.17,5.27,17.9l3.78.42.07,2.52,1.4,1.74-.39-2.5,1.3-2.32L9.88,16.35l.47-1.26" transform="translate(-1.51 -1.22)"/></g><g class="m"><path class="c" d="M11.27,1.45a.2.2,0,1,0,.2-.2.2.2,0,0,0-.2.2" transform="translate(-1.51 -1.22)"/></g><g class="n"><path class="e" d="M11.27,1.45a.2.2,0,1,0,.2-.2A.2.2,0,0,0,11.27,1.45Z" transform="translate(-1.51 -1.22)"/></g><path class="c" d="M15.43,7.33a.21.21,0,0,0,.21.21.2.2,0,0,0,.2-.21.2.2,0,0,0-.2-.2.2.2,0,0,0-.21.2" transform="translate(-1.51 -1.22)"/><path class="e" d="M15.43,7.33a.21.21,0,0,0,.21.21.2.2,0,0,0,.2-.21.2.2,0,0,0-.2-.2A.2.2,0,0,0,15.43,7.33Z" transform="translate(-1.51 -1.22)"/><path class="c" d="M18.81,4.29a.2.2,0,0,0,.2.2.2.2,0,1,0,0-.4.2.2,0,0,0-.2.2" transform="translate(-1.51 -1.22)"/><path class="e" d="M18.81,4.29a.2.2,0,0,0,.2.2.2.2,0,1,0,0-.4A.2.2,0,0,0,18.81,4.29Z" transform="translate(-1.51 -1.22)"/><path class="c" d="M18.65,9.92a.2.2,0,1,0,.2-.2.2.2,0,0,0-.2.2" transform="translate(-1.51 -1.22)"/><path class="e" d="M18.65,9.92a.2.2,0,1,0,.2-.2A.2.2,0,0,0,18.65,9.92Z" transform="translate(-1.51 -1.22)"/><path class="c" d="M20.47,13a.2.2,0,1,0,.4,0,.2.2,0,1,0-.4,0" transform="translate(-1.51 -1.22)"/><path class="e" d="M20.47,13a.2.2,0,1,0,.4,0,.2.2,0,1,0-.4,0Z" transform="translate(-1.51 -1.22)"/><path class="c" d="M15.84,13.17a.2.2,0,0,0,.4,0,.2.2,0,1,0-.4,0" transform="translate(-1.51 -1.22)"/><path class="e" d="M15.84,13.17a.2.2,0,0,0,.4,0,.2.2,0,1,0-.4,0Z" transform="translate(-1.51 -1.22)"/><path class="c" d="M10.75,12.88a.2.2,0,1,0,.2-.2.2.2,0,0,0-.2.2" transform="translate(-1.51 -1.22)"/><path class="e" d="M10.75,12.88a.2.2,0,1,0,.2-.2A.2.2,0,0,0,10.75,12.88Z" transform="translate(-1.51 -1.22)"/><path class="c" d="M12.07,15.57a.21.21,0,0,0,.21.21.2.2,0,0,0,.2-.21.2.2,0,0,0-.2-.2.2.2,0,0,0-.21.2" transform="translate(-1.51 -1.22)"/><path class="e" d="M12.07,15.57a.21.21,0,0,0,.21.21.2.2,0,0,0,.2-.21.2.2,0,0,0-.2-.2A.2.2,0,0,0,12.07,15.57Z" transform="translate(-1.51 -1.22)"/><path class="c" d="M10.08,15a.2.2,0,1,0,.2-.2.2.2,0,0,0-.2.2" transform="translate(-1.51 -1.22)"/><path class="e" d="M10.08,15a.2.2,0,1,0,.2-.2A.2.2,0,0,0,10.08,15Z" transform="translate(-1.51 -1.22)"/><g class="o"><path class="c" d="M22.08,9.89a.2.2,0,1,0,.2-.2.2.2,0,0,0-.2.2" transform="translate(-1.51 -1.22)"/></g><g class="p"><path class="e" d="M22.08,9.89a.2.2,0,1,0,.2-.2A.2.2,0,0,0,22.08,9.89Z" transform="translate(-1.51 -1.22)"/></g><path class="c" d="M4.23,3.59a.2.2,0,1,0,.4,0,.2.2,0,1,0-.4,0" transform="translate(-1.51 -1.22)"/><path class="e" d="M4.23,3.59a.2.2,0,1,0,.4,0,.2.2,0,1,0-.4,0Z" transform="translate(-1.51 -1.22)"/><path class="c" d="M8.42,6.55a.2.2,0,1,0,.4,0,.2.2,0,0,0-.4,0" transform="translate(-1.51 -1.22)"/><path class="e" d="M8.42,6.55a.2.2,0,1,0,.4,0,.2.2,0,0,0-.4,0Z" transform="translate(-1.51 -1.22)"/><g class="q"><path class="c" d="M1.54,9.17a.2.2,0,0,0,.2.2.2.2,0,1,0,0-.4.2.2,0,0,0-.2.2" transform="translate(-1.51 -1.22)"/></g><g class="r"><path class="e" d="M1.54,9.17a.2.2,0,0,0,.2.2.2.2,0,1,0,0-.4A.2.2,0,0,0,1.54,9.17Z" transform="translate(-1.51 -1.22)"/></g><path class="c" d="M4.35,11.53a.2.2,0,0,0,.2.2.2.2,0,1,0,0-.4.2.2,0,0,0-.2.2" transform="translate(-1.51 -1.22)"/><path class="e" d="M4.35,11.53a.2.2,0,0,0,.2.2.2.2,0,1,0,0-.4A.2.2,0,0,0,4.35,11.53Z" transform="translate(-1.51 -1.22)"/><path class="c" d="M1.8,13.43a.2.2,0,1,0,.2-.2.2.2,0,0,0-.2.2" transform="translate(-1.51 -1.22)"/><g class="s"><path class="e" d="M1.8,13.43a.2.2,0,1,0,.2-.2A.2.2,0,0,0,1.8,13.43Z" transform="translate(-1.51 -1.22)"/></g><path class="c" d="M3.33,14.6a.2.2,0,0,0,.21.2.2.2,0,1,0,0-.4.2.2,0,0,0-.21.2" transform="translate(-1.51 -1.22)"/><path class="e" d="M3.33,14.6a.2.2,0,0,0,.21.2.2.2,0,1,0,0-.4A.2.2,0,0,0,3.33,14.6Z" transform="translate(-1.51 -1.22)"/><path class="c" d="M7.61,14.29a.2.2,0,1,0,.2-.2.2.2,0,0,0-.2.2" transform="translate(-1.51 -1.22)"/><path class="e" d="M7.61,14.29a.2.2,0,1,0,.2-.2A.2.2,0,0,0,7.61,14.29Z" transform="translate(-1.51 -1.22)"/><path class="c" d="M9.67,16.35a.2.2,0,0,0,.2.2.2.2,0,1,0,0-.4.2.2,0,0,0-.2.2" transform="translate(-1.51 -1.22)"/><path class="e" d="M9.67,16.35a.2.2,0,0,0,.2.2.2.2,0,1,0,0-.4A.2.2,0,0,0,9.67,16.35Z" transform="translate(-1.51 -1.22)"/><path class="c" d="M2.9,16.15a.2.2,0,0,0,.2.2.2.2,0,1,0,0-.4.2.2,0,0,0-.2.2" transform="translate(-1.51 -1.22)"/><path class="e" d="M2.9,16.15a.2.2,0,0,0,.2.2.2.2,0,1,0,0-.4A.2.2,0,0,0,2.9,16.15Z" transform="translate(-1.51 -1.22)"/><path class="c" d="M5.09,17.83a.2.2,0,0,0,.21.2.2.2,0,0,0,.2-.2.2.2,0,0,0-.2-.21.21.21,0,0,0-.21.21" transform="translate(-1.51 -1.22)"/><path class="e" d="M5.09,17.83a.2.2,0,0,0,.21.2.2.2,0,0,0,.2-.2.2.2,0,0,0-.2-.21A.21.21,0,0,0,5.09,17.83Z" transform="translate(-1.51 -1.22)"/><path class="c" d="M8.85,18.31a.2.2,0,0,0,.2.2.2.2,0,0,0,.21-.2.21.21,0,1,0-.41,0" transform="translate(-1.51 -1.22)"/><path class="e" d="M8.85,18.31a.2.2,0,0,0,.2.2.2.2,0,0,0,.21-.2.21.21,0,1,0-.41,0Z" transform="translate(-1.51 -1.22)"/><path class="c" d="M11.18,17.73a.2.2,0,1,0,.2-.2.2.2,0,0,0-.2.2" transform="translate(-1.51 -1.22)"/><path class="e" d="M11.18,17.73a.2.2,0,1,0,.2-.2A.2.2,0,0,0,11.18,17.73Z" transform="translate(-1.51 -1.22)"/><path class="c" d="M10,20.07a.2.2,0,0,0,.21.2.2.2,0,0,0,0-.4.2.2,0,0,0-.21.2" transform="translate(-1.51 -1.22)"/><path class="e" d="M10,20.07a.2.2,0,0,0,.21.2.2.2,0,0,0,0-.4A.2.2,0,0,0,10,20.07Z" transform="translate(-1.51 -1.22)"/><path class="c" d="M9,20.81a.2.2,0,1,0,.2-.2.2.2,0,0,0-.2.2" transform="translate(-1.51 -1.22)"/><path class="e" d="M9,20.81a.2.2,0,1,0,.2-.2A.2.2,0,0,0,9,20.81Z" transform="translate(-1.51 -1.22)"/><path class="c" d="M10.26,22.48a.2.2,0,1,0,.4,0,.2.2,0,0,0-.4,0" transform="translate(-1.51 -1.22)"/><g class="t"><path class="e" d="M10.26,22.48a.2.2,0,1,0,.4,0,.2.2,0,0,0-.4,0Z" transform="translate(-1.51 -1.22)"/></g></svg>