<?xml version="1.0" encoding="utf-8"?>
<!-- Generator: Adobe Illustrator 26.0.3, SVG Export Plug-In . SVG Version: 6.00 Build 0)  -->
<svg version="1.1" xmlns="http://www.w3.org/2000/svg" xmlns:xlink="http://www.w3.org/1999/xlink" x="0px" y="0px"
	 viewBox="0 0 120 24" style="enable-background:new 0 0 120 24;" xml:space="preserve">
<style type="text/css">
	.st0{fill:#0A0A0A;}
	.st1{fill:#FFFFFF;}
	.st2{font-family:'AvenirNextLTPro-Bold';}
	.st3{font-size:21px;}
	.st4{display:none;fill:url(#icon_00000111192813372250580010000011597958625440785823_);}
	.st5{clip-path:url(#SVGID_00000109004321235745890930000013895574412207490183_);}
	.st6{fill:none;stroke:#1F7EA1;stroke-width:5.768215e-02;stroke-miterlimit:10;}
	.st7{clip-path:url(#SVGID_00000156583345413429982440000011414214230774074768_);}
	.st8{clip-path:url(#SVGID_00000181076500524645052450000013661532759413225098_);}
	.st9{clip-path:url(#SVGID_00000121264370844228175170000011965974958318924453_);}
	.st10{clip-path:url(#SVGID_00000000221147165177829850000010012416806190651043_);}
	.st11{clip-path:url(#SVGID_00000164503953407481333880000017267222333165426318_);}
	.st12{fill:none;stroke:#1F7EA1;stroke-width:0.1154;stroke-miterlimit:10;}
	.st13{clip-path:url(#SVGID_00000065753892631946808560000005099764086000283831_);}
	.st14{clip-path:url(#SVGID_00000044874132490976359830000010080666267087836045_);}
	.st15{clip-path:url(#SVGID_00000002386274471697464150000010775648979640187552_);}
	.st16{clip-path:url(#SVGID_00000075124865949722541130000003919538312815304868_);}
	.st17{clip-path:url(#SVGID_00000147184722094829383560000001976241752759002766_);}
	.st18{clip-path:url(#SVGID_00000109002460068526404820000012588782467663867025_);}
	.st19{clip-path:url(#SVGID_00000132074051368943420760000000014011115503715240_);}
	.st20{clip-path:url(#SVGID_00000015343606511651292330000000436748973897028264_);}
	.st21{clip-path:url(#SVGID_00000181780975935601429990000013407770863663541385_);}
</style>
<g id="Layer_1">
	<g id="Layer_2_00000085967395621107515330000008342996897736855209_">
		<rect class="st0" width="120" height="23.9"/>
	</g>
	<g id="svg4" xmlns:svg="http://www.w3.org/2000/svg">
		<g id="text">
			<text id="Snapmin" transform="matrix(1 0 0 1 22.6035 18.8759)" class="st1 st2 st3">AI Cues</text>
		</g>
		
			<linearGradient id="icon_00000163795377337601443560000014792437469334621604_" gradientUnits="userSpaceOnUse" x1="270.0646" y1="-908.7263" x2="293.9894" y2="-908.7263" gradientTransform="matrix(0.7407 0 0 -0.7407 -199.6864 -663.2593)">
			<stop  offset="0" style="stop-color:#00D0D1"/>
			<stop  offset="1" style="stop-color:#2AFFC0"/>
		</linearGradient>
		<path id="icon" style="display:none;fill:url(#icon_00000163795377337601443560000014792437469334621604_);" d="M16.8,0.1
			c0,0,3.7,9.7-1.3,16.4c-3.1,4.1-8,3.3-11.3,2.1c1.1-2.5,2.5-4.5,4.3-5.9c0.9,0.4,2.4,0.6,4.4,0.4C11,13,9.7,12.6,9,12.1l0.1,0.1
			c1.6-1.1,3.4-1.9,5.4-2.2c-2.4-0.2-4.4,0.2-6.4,1.3C7.7,10.8,7.2,10,6.8,9.1c0.1,1.1,0.2,2,0.6,2.7c-1.9,1.3-3.7,3.4-5.1,6.2
			c-0.1,0-0.1-0.1-0.1-0.1c-0.6-0.3-1-0.7-1.3-1.5c-2.2-7,2.6-10.7,7.4-11C17.2,5.2,16.8,0.1,16.8,0.1z"/>
	</g>
</g>
<g id="Layer_7">
	<g>
		<defs>
			<rect id="SVGID_1_" x="18" y="9" width="4.5" height="4.9"/>
		</defs>
		<clipPath id="SVGID_00000145049224840125584770000002390632278429503393_">
			<use xlink:href="#SVGID_1_"  style="overflow:visible;"/>
		</clipPath>
		<g style="clip-path:url(#SVGID_00000145049224840125584770000002390632278429503393_);">
			<path class="st6" d="M22.3,9.9h-3.5l1.8,3.1L22.3,9.9z"/>
		</g>
	</g>
	<path class="st6" d="M16,13.1l2.8-3.2l-3.2-2.6L16,13.1z"/>
	<path class="st6" d="M19.1,4.3l-0.2,5.7l-3.2-2.6L19.1,4.3z"/>
	<g>
		<defs>
			<rect id="SVGID_00000183957522561910766920000005224148750826815412_" x="7.8" y="1.2" width="8.8" height="7"/>
		</defs>
		<clipPath id="SVGID_00000022518211696124589200000003476085168399124125_">
			<use xlink:href="#SVGID_00000183957522561910766920000005224148750826815412_"  style="overflow:visible;"/>
		</clipPath>
		<g style="clip-path:url(#SVGID_00000022518211696124589200000003476085168399124125_);">
			<path class="st6" d="M11.3,1.5l4.3,5.8l-7-0.8L11.3,1.5z"/>
		</g>
	</g>
	<g>
		<defs>
			<rect id="SVGID_00000132790957948290250640000016524955966978021257_" x="3.4" y="1.2" width="8.8" height="6.2"/>
		</defs>
		<clipPath id="SVGID_00000112597423331278925970000003196534191500698263_">
			<use xlink:href="#SVGID_00000132790957948290250640000016524955966978021257_"  style="overflow:visible;"/>
		</clipPath>
		<g style="clip-path:url(#SVGID_00000112597423331278925970000003196534191500698263_);">
			<path class="st6" d="M8.6,6.6L4.4,3.6l6.9-2.1L8.6,6.6z"/>
		</g>
	</g>
	<path class="st6" d="M16,13.1L8.6,6.6l2.3,6.3L16,13.1z"/>
	<path class="st6" d="M12.3,15.6l-1.4-2.8L10.2,15L12.3,15.6z"/>
	<g>
		<defs>
			<rect id="SVGID_00000072282747120241569030000013244738171180545460_" x="1.5" y="5.7" width="8" height="6.8"/>
		</defs>
		<clipPath id="SVGID_00000013896461093954375170000005684265637564381105_">
			<use xlink:href="#SVGID_00000072282747120241569030000013244738171180545460_"  style="overflow:visible;"/>
		</clipPath>
		<g style="clip-path:url(#SVGID_00000013896461093954375170000005684265637564381105_);">
			<path class="st6" d="M8.6,6.6L1.7,9.2l2.8,2.4L8.6,6.6z"/>
		</g>
	</g>
	<g>
		<defs>
			<rect id="SVGID_00000156558726476195721790000009897581736611439496_" x="1.5" y="10.8" width="4" height="4.7"/>
		</defs>
		<clipPath id="SVGID_00000151535373489170111280000003052956643879025566_">
			<use xlink:href="#SVGID_00000156558726476195721790000009897581736611439496_"  style="overflow:visible;"/>
		</clipPath>
		<g style="clip-path:url(#SVGID_00000151535373489170111280000003052956643879025566_);">
			<path class="st6" d="M3.6,14.6l1-3L2,13.5L3.6,14.6z"/>
		</g>
	</g>
	<path class="st6" d="M10.9,12.8l-3.1,1.5l-3.3-2.7L10.9,12.8z"/>
	<g>
		<defs>
			<rect id="SVGID_00000136370462342041960120000016931975797174069161_" x="1.5" y="1.2" width="21" height="16.2"/>
		</defs>
		<clipPath id="SVGID_00000128474068219029607360000004218281769197471900_">
			<use xlink:href="#SVGID_00000136370462342041960120000016931975797174069161_"  style="overflow:visible;"/>
		</clipPath>
		<g style="clip-path:url(#SVGID_00000128474068219029607360000004218281769197471900_);">
			<path class="st12" d="M22.3,9.9L19,4.3l-7.5-2.8l-7,2.2L1.7,9.2L2,13.5l1.6,1.1l4.3-0.4l4.4,1.4l3.6-2.5l4.8-0.2L22.3,9.9z"/>
		</g>
	</g>
	<g>
		<defs>
			<rect id="SVGID_00000122722801120185357650000013442067043271850415_" x="1.5" y="13" width="11.6" height="9.8"/>
		</defs>
		<clipPath id="SVGID_00000145736808086759979940000013099708136866468508_">
			<use xlink:href="#SVGID_00000122722801120185357650000013442067043271850415_"  style="overflow:visible;"/>
		</clipPath>
		<g style="clip-path:url(#SVGID_00000145736808086759979940000013099708136866468508_);">
			<path class="st12" d="M3.5,14.6l-0.4,1.6l2.2,1.7L9,18.3l0.1,2.5l1.4,1.7l-0.4-2.5l1.3-2.3l-1.6-1.4l0.5-1.3"/>
		</g>
	</g>
	<g>
		<defs>
			<rect id="SVGID_00000049188363282039537390000001828011568766370691_" x="11.2" y="1.2" width="0.6" height="0.5"/>
		</defs>
		<clipPath id="SVGID_00000119800722214281595220000014992328449103615904_">
			<use xlink:href="#SVGID_00000049188363282039537390000001828011568766370691_"  style="overflow:visible;"/>
		</clipPath>
		<g style="clip-path:url(#SVGID_00000119800722214281595220000014992328449103615904_);">
			<path class="st1" d="M11.3,1.4c0,0.1,0.1,0.2,0.2,0.2c0.1,0,0.2-0.1,0.2-0.2c0-0.1-0.1-0.2-0.2-0.2C11.4,1.2,11.3,1.3,11.3,1.4"
				/>
		</g>
	</g>
	<g>
		<defs>
			<rect id="SVGID_00000057134065057827699880000001884888738380655491_" x="10.3" y="1.2" width="2.2" height="1.4"/>
		</defs>
		<clipPath id="SVGID_00000058550376610846498250000002744620010684437683_">
			<use xlink:href="#SVGID_00000057134065057827699880000001884888738380655491_"  style="overflow:visible;"/>
		</clipPath>
		<g style="clip-path:url(#SVGID_00000058550376610846498250000002744620010684437683_);">
			<path class="st6" d="M11.3,1.4c0,0.1,0.1,0.2,0.2,0.2c0.1,0,0.2-0.1,0.2-0.2c0-0.1-0.1-0.2-0.2-0.2C11.4,1.2,11.3,1.3,11.3,1.4z"
				/>
		</g>
	</g>
	<path class="st1" d="M15.4,7.3c0,0.1,0.1,0.2,0.2,0.2c0.1,0,0.2-0.1,0.2-0.2c0-0.1-0.1-0.2-0.2-0.2C15.5,7.1,15.4,7.2,15.4,7.3"/>
	<path class="st6" d="M15.4,7.3c0,0.1,0.1,0.2,0.2,0.2c0.1,0,0.2-0.1,0.2-0.2c0-0.1-0.1-0.2-0.2-0.2C15.5,7.1,15.4,7.2,15.4,7.3z"/>
	<path class="st1" d="M18.8,4.3c0,0.1,0.1,0.2,0.2,0.2c0.1,0,0.2-0.1,0.2-0.2c0-0.1-0.1-0.2-0.2-0.2C18.9,4.1,18.8,4.2,18.8,4.3"/>
	<path class="st6" d="M18.8,4.3c0,0.1,0.1,0.2,0.2,0.2c0.1,0,0.2-0.1,0.2-0.2c0-0.1-0.1-0.2-0.2-0.2C18.9,4.1,18.8,4.2,18.8,4.3z"/>
	<path class="st1" d="M18.6,9.9c0,0.1,0.1,0.2,0.2,0.2s0.2-0.1,0.2-0.2S19,9.7,18.9,9.7S18.6,9.8,18.6,9.9"/>
	<path class="st6" d="M18.6,9.9c0,0.1,0.1,0.2,0.2,0.2s0.2-0.1,0.2-0.2S19,9.7,18.9,9.7S18.6,9.8,18.6,9.9z"/>
	<path class="st1" d="M20.5,13c0,0.1,0.1,0.2,0.2,0.2c0.1,0,0.2-0.1,0.2-0.2c0-0.1-0.1-0.2-0.2-0.2C20.6,12.8,20.5,12.9,20.5,13"/>
	<path class="st6" d="M20.5,13c0,0.1,0.1,0.2,0.2,0.2c0.1,0,0.2-0.1,0.2-0.2c0-0.1-0.1-0.2-0.2-0.2C20.6,12.8,20.5,12.9,20.5,13z"/>
	<path class="st1" d="M15.8,13.2c0,0.1,0.1,0.2,0.2,0.2c0.1,0,0.2-0.1,0.2-0.2c0-0.1-0.1-0.2-0.2-0.2C15.9,13,15.8,13.1,15.8,13.2"
		/>
	<path class="st6" d="M15.8,13.2c0,0.1,0.1,0.2,0.2,0.2c0.1,0,0.2-0.1,0.2-0.2c0-0.1-0.1-0.2-0.2-0.2C15.9,13,15.8,13.1,15.8,13.2z"
		/>
	<path class="st1" d="M10.7,12.9c0,0.1,0.1,0.2,0.2,0.2s0.2-0.1,0.2-0.2s-0.1-0.2-0.2-0.2S10.7,12.8,10.7,12.9"/>
	<path class="st6" d="M10.7,12.9c0,0.1,0.1,0.2,0.2,0.2s0.2-0.1,0.2-0.2s-0.1-0.2-0.2-0.2S10.7,12.8,10.7,12.9z"/>
	<path class="st1" d="M12.1,15.6c0,0.1,0.1,0.2,0.2,0.2c0.1,0,0.2-0.1,0.2-0.2c0-0.1-0.1-0.2-0.2-0.2C12.2,15.4,12.1,15.5,12.1,15.6
		"/>
	<path class="st6" d="M12.1,15.6c0,0.1,0.1,0.2,0.2,0.2c0.1,0,0.2-0.1,0.2-0.2c0-0.1-0.1-0.2-0.2-0.2C12.2,15.4,12.1,15.5,12.1,15.6
		z"/>
	<path class="st1" d="M10.1,15c0,0.1,0.1,0.2,0.2,0.2s0.2-0.1,0.2-0.2c0-0.1-0.1-0.2-0.2-0.2S10.1,14.9,10.1,15"/>
	<path class="st6" d="M10.1,15c0,0.1,0.1,0.2,0.2,0.2c0.1,0,0.2-0.1,0.2-0.2c0-0.1-0.1-0.2-0.2-0.2C10.2,14.8,10.1,14.9,10.1,15z"/>
	<g>
		<defs>
			<rect id="SVGID_00000061468205361935937290000007655787135329071543_" x="22" y="9.6" width="0.5" height="0.6"/>
		</defs>
		<clipPath id="SVGID_00000082362878495237904240000015669495704535530885_">
			<use xlink:href="#SVGID_00000061468205361935937290000007655787135329071543_"  style="overflow:visible;"/>
		</clipPath>
		<g style="clip-path:url(#SVGID_00000082362878495237904240000015669495704535530885_);">
			<path class="st1" d="M22.1,9.9c0,0.1,0.1,0.2,0.2,0.2s0.2-0.1,0.2-0.2c0-0.1-0.1-0.2-0.2-0.2S22.1,9.8,22.1,9.9"/>
		</g>
	</g>
	<g>
		<defs>
			<rect id="SVGID_00000057110768886990697780000002249451965162850235_" x="21.1" y="8.8" width="1.4" height="2.2"/>
		</defs>
		<clipPath id="SVGID_00000043444848870200200780000015477137477148265637_">
			<use xlink:href="#SVGID_00000057110768886990697780000002249451965162850235_"  style="overflow:visible;"/>
		</clipPath>
		<g style="clip-path:url(#SVGID_00000043444848870200200780000015477137477148265637_);">
			<path class="st6" d="M22.1,9.9c0,0.1,0.1,0.2,0.2,0.2s0.2-0.1,0.2-0.2c0-0.1-0.1-0.2-0.2-0.2S22.1,9.8,22.1,9.9z"/>
		</g>
	</g>
	<path class="st1" d="M4.2,3.6c0,0.1,0.1,0.2,0.2,0.2c0.1,0,0.2-0.1,0.2-0.2c0-0.1-0.1-0.2-0.2-0.2C4.3,3.4,4.2,3.5,4.2,3.6"/>
	<path class="st6" d="M4.2,3.6c0,0.1,0.1,0.2,0.2,0.2c0.1,0,0.2-0.1,0.2-0.2c0-0.1-0.1-0.2-0.2-0.2C4.3,3.4,4.2,3.5,4.2,3.6z"/>
	<path class="st1" d="M8.4,6.6c0,0.1,0.1,0.2,0.2,0.2c0.1,0,0.2-0.1,0.2-0.2c0-0.1-0.1-0.2-0.2-0.2C8.5,6.4,8.4,6.4,8.4,6.6"/>
	<path class="st6" d="M8.4,6.6c0,0.1,0.1,0.2,0.2,0.2c0.1,0,0.2-0.1,0.2-0.2c0-0.1-0.1-0.2-0.2-0.2C8.5,6.4,8.4,6.4,8.4,6.6z"/>
	<g>
		<defs>
			<rect id="SVGID_00000155830276294530075710000006229084307093617837_" x="1.5" y="8.9" width="0.5" height="0.6"/>
		</defs>
		<clipPath id="SVGID_00000178927221610196471390000017607969472427059865_">
			<use xlink:href="#SVGID_00000155830276294530075710000006229084307093617837_"  style="overflow:visible;"/>
		</clipPath>
		<g style="clip-path:url(#SVGID_00000178927221610196471390000017607969472427059865_);">
			<path class="st1" d="M1.5,9.2c0,0.1,0.1,0.2,0.2,0.2c0.1,0,0.2-0.1,0.2-0.2C1.9,9.1,1.9,9,1.7,9C1.6,9,1.5,9.1,1.5,9.2"/>
		</g>
	</g>
	<g>
		<defs>
			<rect id="SVGID_00000136391401007712956630000000511687826375273387_" x="1.5" y="8" width="1.4" height="2.2"/>
		</defs>
		<clipPath id="SVGID_00000111894513584703575730000001915398803746743948_">
			<use xlink:href="#SVGID_00000136391401007712956630000000511687826375273387_"  style="overflow:visible;"/>
		</clipPath>
		<g style="clip-path:url(#SVGID_00000111894513584703575730000001915398803746743948_);">
			<path class="st6" d="M1.5,9.2c0,0.1,0.1,0.2,0.2,0.2c0.1,0,0.2-0.1,0.2-0.2C1.9,9.1,1.9,9,1.7,9C1.6,9,1.5,9.1,1.5,9.2z"/>
		</g>
	</g>
	<path class="st1" d="M4.4,11.5c0,0.1,0.1,0.2,0.2,0.2c0.1,0,0.2-0.1,0.2-0.2c0-0.1-0.1-0.2-0.2-0.2C4.4,11.3,4.4,11.4,4.4,11.5"/>
	<path class="st6" d="M4.4,11.5c0,0.1,0.1,0.2,0.2,0.2c0.1,0,0.2-0.1,0.2-0.2c0-0.1-0.1-0.2-0.2-0.2C4.4,11.3,4.4,11.4,4.4,11.5z"/>
	<path class="st1" d="M1.8,13.4c0,0.1,0.1,0.2,0.2,0.2c0.1,0,0.2-0.1,0.2-0.2c0-0.1-0.1-0.2-0.2-0.2C1.9,13.2,1.8,13.3,1.8,13.4"/>
	<g>
		<defs>
			<rect id="SVGID_00000017508218409983514480000010960897287917717401_" x="1.5" y="12.3" width="1.7" height="2.2"/>
		</defs>
		<clipPath id="SVGID_00000154396137960872771750000002599544534874023055_">
			<use xlink:href="#SVGID_00000017508218409983514480000010960897287917717401_"  style="overflow:visible;"/>
		</clipPath>
		<g style="clip-path:url(#SVGID_00000154396137960872771750000002599544534874023055_);">
			<path class="st6" d="M1.8,13.4c0,0.1,0.1,0.2,0.2,0.2c0.1,0,0.2-0.1,0.2-0.2c0-0.1-0.1-0.2-0.2-0.2C1.9,13.2,1.8,13.3,1.8,13.4z"
				/>
		</g>
	</g>
	<path class="st1" d="M3.3,14.6c0,0.1,0.1,0.2,0.2,0.2c0.1,0,0.2-0.1,0.2-0.2c0-0.1-0.1-0.2-0.2-0.2C3.4,14.4,3.3,14.5,3.3,14.6"/>
	<path class="st6" d="M3.3,14.6c0,0.1,0.1,0.2,0.2,0.2c0.1,0,0.2-0.1,0.2-0.2s-0.1-0.2-0.2-0.2C3.4,14.4,3.3,14.5,3.3,14.6z"/>
	<path class="st1" d="M7.6,14.3c0,0.1,0.1,0.2,0.2,0.2c0.1,0,0.2-0.1,0.2-0.2c0-0.1-0.1-0.2-0.2-0.2C7.7,14.1,7.6,14.2,7.6,14.3"/>
	<path class="st6" d="M7.6,14.3c0,0.1,0.1,0.2,0.2,0.2c0.1,0,0.2-0.1,0.2-0.2c0-0.1-0.1-0.2-0.2-0.2C7.7,14.1,7.6,14.2,7.6,14.3z"/>
	<path class="st1" d="M9.7,16.4c0,0.1,0.1,0.2,0.2,0.2c0.1,0,0.2-0.1,0.2-0.2c0-0.1-0.1-0.2-0.2-0.2C9.8,16.2,9.7,16.2,9.7,16.4"/>
	<path class="st6" d="M9.7,16.4c0,0.1,0.1,0.2,0.2,0.2c0.1,0,0.2-0.1,0.2-0.2c0-0.1-0.1-0.2-0.2-0.2C9.8,16.2,9.7,16.2,9.7,16.4z"/>
	<path class="st1" d="M2.9,16.2c0,0.1,0.1,0.2,0.2,0.2c0.1,0,0.2-0.1,0.2-0.2c0-0.1-0.1-0.2-0.2-0.2C3,15.9,2.9,16,2.9,16.2"/>
	<path class="st6" d="M2.9,16.2c0,0.1,0.1,0.2,0.2,0.2c0.1,0,0.2-0.1,0.2-0.2c0-0.1-0.1-0.2-0.2-0.2C3,15.9,2.9,16,2.9,16.2z"/>
	<path class="st1" d="M5.1,17.8c0,0.1,0.1,0.2,0.2,0.2c0.1,0,0.2-0.1,0.2-0.2c0-0.1-0.1-0.2-0.2-0.2C5.2,17.6,5.1,17.7,5.1,17.8"/>
	<path class="st6" d="M5.1,17.8c0,0.1,0.1,0.2,0.2,0.2c0.1,0,0.2-0.1,0.2-0.2c0-0.1-0.1-0.2-0.2-0.2C5.2,17.6,5.1,17.7,5.1,17.8z"/>
	<path class="st1" d="M8.9,18.3c0,0.1,0.1,0.2,0.2,0.2c0.1,0,0.2-0.1,0.2-0.2c0-0.1-0.1-0.2-0.2-0.2C8.9,18.1,8.9,18.2,8.9,18.3"/>
	<path class="st6" d="M8.9,18.3c0,0.1,0.1,0.2,0.2,0.2c0.1,0,0.2-0.1,0.2-0.2s-0.1-0.2-0.2-0.2C8.9,18.1,8.9,18.2,8.9,18.3z"/>
	<path class="st1" d="M11.2,17.7c0,0.1,0.1,0.2,0.2,0.2c0.1,0,0.2-0.1,0.2-0.2c0-0.1-0.1-0.2-0.2-0.2C11.3,17.5,11.2,17.6,11.2,17.7
		"/>
	<path class="st6" d="M11.2,17.7c0,0.1,0.1,0.2,0.2,0.2c0.1,0,0.2-0.1,0.2-0.2c0-0.1-0.1-0.2-0.2-0.2C11.3,17.5,11.2,17.6,11.2,17.7
		z"/>
	<path class="st1" d="M10,20.1c0,0.1,0.1,0.2,0.2,0.2s0.2-0.1,0.2-0.2c0-0.1-0.1-0.2-0.2-0.2S10,20,10,20.1"/>
	<path class="st6" d="M10,20.1c0,0.1,0.1,0.2,0.2,0.2s0.2-0.1,0.2-0.2c0-0.1-0.1-0.2-0.2-0.2S10,20,10,20.1z"/>
	<path class="st1" d="M9,20.8C9,20.9,9,21,9.2,21c0.1,0,0.2-0.1,0.2-0.2c0-0.1-0.1-0.2-0.2-0.2C9,20.6,9,20.7,9,20.8"/>
	<path class="st6" d="M9,20.8C9,20.9,9,21,9.2,21c0.1,0,0.2-0.1,0.2-0.2c0-0.1-0.1-0.2-0.2-0.2C9,20.6,9,20.7,9,20.8z"/>
	<path class="st1" d="M10.3,22.5c0,0.1,0.1,0.2,0.2,0.2s0.2-0.1,0.2-0.2c0-0.1-0.1-0.2-0.2-0.2S10.3,22.4,10.3,22.5"/>
	<g>
		<defs>
			<rect id="SVGID_00000155145805992034195330000004374178854128971444_" x="9.3" y="21.4" width="2.2" height="1.4"/>
		</defs>
		<clipPath id="SVGID_00000170280603952587093830000000057631807653078443_">
			<use xlink:href="#SVGID_00000155145805992034195330000004374178854128971444_"  style="overflow:visible;"/>
		</clipPath>
		<g style="clip-path:url(#SVGID_00000170280603952587093830000000057631807653078443_);">
			<path class="st6" d="M10.3,22.5c0,0.1,0.1,0.2,0.2,0.2s0.2-0.1,0.2-0.2c0-0.1-0.1-0.2-0.2-0.2S10.3,22.4,10.3,22.5z"/>
		</g>
	</g>
	<g>
		<g transform="translate(157.729951, 263.504569)">
		</g>
	</g>
</g>
<g id="Layer_8">
</g>
<g id="Layer_4">
</g>
<g id="Layer_5">
</g>
<g id="Layer_6">
</g>
<g id="Layer_3">
</g>
<g id="Layer_2">
</g>
</svg>
