<?xml version="1.0" encoding="utf-8"?>
<!-- Generator: Adobe Illustrator 26.0.3, SVG Export Plug-In . SVG Version: 6.00 Build 0)  -->
<svg version="1.1" xmlns="http://www.w3.org/2000/svg" xmlns:xlink="http://www.w3.org/1999/xlink" x="0px" y="0px"
	 viewBox="0 0 120 24" style="enable-background:new 0 0 120 24;" xml:space="preserve">
<style type="text/css">
	.st0{fill:#0A0A0A;}
	.st1{fill:#FFFFFF;}
	.st2{font-family:'AvenirNextLTPro-Bold';}
	.st3{font-size:21px;}
	.st4{display:none;fill:url(#icon_00000095307158346441673770000016996411596501426869_);}
	.st5{clip-path:url(#SVGID_00000062173015817988209030000005542026736571399089_);}
	.st6{fill:none;stroke:#1F7EA1;stroke-width:5.768215e-02;stroke-miterlimit:10;}
	.st7{clip-path:url(#SVGID_00000018917497038887236800000013833092924443377797_);}
	.st8{clip-path:url(#SVGID_00000167387254943265679220000004292275543304822151_);}
	.st9{clip-path:url(#SVGID_00000170279694311948678670000000672061296729218740_);}
	.st10{clip-path:url(#SVGID_00000137819699580351252700000010391144853335097986_);}
	.st11{clip-path:url(#SVGID_00000073703607323753006370000014612532338744407959_);}
	.st12{fill:none;stroke:#1F7EA1;stroke-width:0.1154;stroke-miterlimit:10;}
	.st13{clip-path:url(#SVGID_00000145031530351108325910000016289653637534002076_);}
	.st14{clip-path:url(#SVGID_00000070820841600668294270000013492737883411064194_);}
	.st15{clip-path:url(#SVGID_00000183211650222091177530000003634674977564292023_);}
	.st16{clip-path:url(#SVGID_00000159446218939825044740000009265557464816285617_);}
	.st17{clip-path:url(#SVGID_00000065045637622563169580000007341775593381620143_);}
	.st18{clip-path:url(#SVGID_00000036253400764752173450000012871948978351036335_);}
	.st19{clip-path:url(#SVGID_00000098205815731382132000000008454791687757657474_);}
	.st20{clip-path:url(#SVGID_00000054976630514328498540000002997471532586174120_);}
	.st21{clip-path:url(#SVGID_00000101809105995292451120000001510571796221117569_);}
</style>
<g id="Layer_1">
	<g id="Layer_2_00000085967395621107515330000008342996897736855209_">
		<rect class="st0" width="120" height="23.9"/>
	</g>
	<g id="svg4" xmlns:svg="http://www.w3.org/2000/svg">
		<g id="text">
			<text id="Snapmin" transform="matrix(1 0 0 1 22.6035 18.8759)" class="st1 st2 st3">AI Cues</text>
		</g>
		
			<linearGradient id="icon_00000066476555934274058490000006268000004967303331_" gradientUnits="userSpaceOnUse" x1="270.0646" y1="-908.7263" x2="293.9894" y2="-908.7263" gradientTransform="matrix(0.7407 0 0 -0.7407 -199.6864 -663.2593)">
			<stop  offset="0" style="stop-color:#00D0D1"/>
			<stop  offset="1" style="stop-color:#2AFFC0"/>
		</linearGradient>
		<path id="icon" style="display:none;fill:url(#icon_00000066476555934274058490000006268000004967303331_);" d="M16.8,0.1
			c0,0,3.7,9.7-1.3,16.4c-3.1,4.1-8,3.3-11.3,2.1c1.1-2.5,2.5-4.5,4.3-5.9c0.9,0.4,2.4,0.6,4.4,0.4C11,13,9.7,12.6,9,12.1l0.1,0.1
			c1.6-1.1,3.4-1.9,5.4-2.2c-2.4-0.2-4.4,0.2-6.4,1.3C7.7,10.8,7.2,10,6.8,9.1c0.1,1.1,0.2,2,0.6,2.7c-1.9,1.3-3.7,3.4-5.1,6.2
			c-0.1,0-0.1-0.1-0.1-0.1c-0.6-0.3-1-0.7-1.3-1.5c-2.2-7,2.6-10.7,7.4-11C17.2,5.2,16.8,0.1,16.8,0.1z"/>
	</g>
</g>
<g id="Layer_7">
	<g>
		<defs>
			<rect id="SVGID_1_" x="18" y="9" width="4.5" height="4.9"/>
		</defs>
		<clipPath id="SVGID_00000145047572588444744710000002284428133915527340_">
			<use xlink:href="#SVGID_1_"  style="overflow:visible;"/>
		</clipPath>
		<g style="clip-path:url(#SVGID_00000145047572588444744710000002284428133915527340_);">
			<path class="st6" d="M22.3,9.9h-3.5l1.8,3.1L22.3,9.9z"/>
		</g>
	</g>
	<path class="st6" d="M16,13.1l2.8-3.2l-3.2-2.6L16,13.1z"/>
	<path class="st6" d="M19.1,4.3l-0.2,5.7l-3.2-2.6L19.1,4.3z"/>
	<g>
		<defs>
			<rect id="SVGID_00000109024802926014192400000011854184098830047377_" x="7.8" y="1.2" width="8.8" height="7"/>
		</defs>
		<clipPath id="SVGID_00000111876339195687757310000002813676383734152637_">
			<use xlink:href="#SVGID_00000109024802926014192400000011854184098830047377_"  style="overflow:visible;"/>
		</clipPath>
		<g style="clip-path:url(#SVGID_00000111876339195687757310000002813676383734152637_);">
			<path class="st6" d="M11.3,1.5l4.3,5.8l-7-0.8L11.3,1.5z"/>
		</g>
	</g>
	<g>
		<defs>
			<rect id="SVGID_00000038375752457770090550000002992817318239084193_" x="3.4" y="1.2" width="8.8" height="6.2"/>
		</defs>
		<clipPath id="SVGID_00000055665290299226180590000002722505065608087218_">
			<use xlink:href="#SVGID_00000038375752457770090550000002992817318239084193_"  style="overflow:visible;"/>
		</clipPath>
		<g style="clip-path:url(#SVGID_00000055665290299226180590000002722505065608087218_);">
			<path class="st6" d="M8.6,6.6L4.4,3.6l6.9-2.1L8.6,6.6z"/>
		</g>
	</g>
	<path class="st6" d="M16,13.1L8.6,6.6l2.3,6.3L16,13.1z"/>
	<path class="st6" d="M12.3,15.6l-1.4-2.8L10.2,15L12.3,15.6z"/>
	<g>
		<defs>
			<rect id="SVGID_00000182487013245853629520000006510709736381210765_" x="1.5" y="5.7" width="8" height="6.8"/>
		</defs>
		<clipPath id="SVGID_00000010302266308375065820000011837187481370122135_">
			<use xlink:href="#SVGID_00000182487013245853629520000006510709736381210765_"  style="overflow:visible;"/>
		</clipPath>
		<g style="clip-path:url(#SVGID_00000010302266308375065820000011837187481370122135_);">
			<path class="st6" d="M8.6,6.6L1.7,9.2l2.8,2.4L8.6,6.6z"/>
		</g>
	</g>
	<g>
		<defs>
			<rect id="SVGID_00000045590467033886632470000013592581847589560758_" x="1.5" y="10.8" width="4" height="4.7"/>
		</defs>
		<clipPath id="SVGID_00000137817641200799852210000016088726226893431970_">
			<use xlink:href="#SVGID_00000045590467033886632470000013592581847589560758_"  style="overflow:visible;"/>
		</clipPath>
		<g style="clip-path:url(#SVGID_00000137817641200799852210000016088726226893431970_);">
			<path class="st6" d="M3.6,14.6l1-3L2,13.5L3.6,14.6z"/>
		</g>
	</g>
	<path class="st6" d="M10.9,12.8l-3.1,1.5l-3.3-2.7L10.9,12.8z"/>
	<g>
		<defs>
			<rect id="SVGID_00000143615629364123128630000011637940722256803757_" x="1.5" y="1.2" width="21" height="16.2"/>
		</defs>
		<clipPath id="SVGID_00000152239238277581962780000005330564894365624508_">
			<use xlink:href="#SVGID_00000143615629364123128630000011637940722256803757_"  style="overflow:visible;"/>
		</clipPath>
		<g style="clip-path:url(#SVGID_00000152239238277581962780000005330564894365624508_);">
			<path class="st12" d="M22.3,9.9L19,4.3l-7.5-2.8l-7,2.2L1.7,9.2L2,13.5l1.6,1.1l4.3-0.4l4.4,1.4l3.6-2.5l4.8-0.2L22.3,9.9z"/>
		</g>
	</g>
	<g>
		<defs>
			<rect id="SVGID_00000002348411151608220190000003288876053153495687_" x="1.5" y="13" width="11.6" height="9.8"/>
		</defs>
		<clipPath id="SVGID_00000083058753773035144600000000902229213980248506_">
			<use xlink:href="#SVGID_00000002348411151608220190000003288876053153495687_"  style="overflow:visible;"/>
		</clipPath>
		<g style="clip-path:url(#SVGID_00000083058753773035144600000000902229213980248506_);">
			<path class="st12" d="M3.5,14.6l-0.4,1.6l2.2,1.7L9,18.3l0.1,2.5l1.4,1.7l-0.4-2.5l1.3-2.3l-1.6-1.4l0.5-1.3"/>
		</g>
	</g>
	<g>
		<defs>
			<rect id="SVGID_00000021812158511600243850000002159114713045829251_" x="11.2" y="1.2" width="0.6" height="0.5"/>
		</defs>
		<clipPath id="SVGID_00000127010247992267934120000015807474545225522050_">
			<use xlink:href="#SVGID_00000021812158511600243850000002159114713045829251_"  style="overflow:visible;"/>
		</clipPath>
		<g style="clip-path:url(#SVGID_00000127010247992267934120000015807474545225522050_);">
			<path class="st1" d="M11.3,1.4c0,0.1,0.1,0.2,0.2,0.2c0.1,0,0.2-0.1,0.2-0.2c0-0.1-0.1-0.2-0.2-0.2C11.4,1.2,11.3,1.3,11.3,1.4"
				/>
		</g>
	</g>
	<g>
		<defs>
			<rect id="SVGID_00000093894270629660600410000009101065492635658902_" x="10.3" y="1.2" width="2.2" height="1.4"/>
		</defs>
		<clipPath id="SVGID_00000061449092103196577470000001065403187694933896_">
			<use xlink:href="#SVGID_00000093894270629660600410000009101065492635658902_"  style="overflow:visible;"/>
		</clipPath>
		<g style="clip-path:url(#SVGID_00000061449092103196577470000001065403187694933896_);">
			<path class="st6" d="M11.3,1.4c0,0.1,0.1,0.2,0.2,0.2c0.1,0,0.2-0.1,0.2-0.2c0-0.1-0.1-0.2-0.2-0.2C11.4,1.2,11.3,1.3,11.3,1.4z"
				/>
		</g>
	</g>
	<path class="st1" d="M15.4,7.3c0,0.1,0.1,0.2,0.2,0.2c0.1,0,0.2-0.1,0.2-0.2c0-0.1-0.1-0.2-0.2-0.2C15.5,7.1,15.4,7.2,15.4,7.3"/>
	<path class="st6" d="M15.4,7.3c0,0.1,0.1,0.2,0.2,0.2c0.1,0,0.2-0.1,0.2-0.2c0-0.1-0.1-0.2-0.2-0.2C15.5,7.1,15.4,7.2,15.4,7.3z"/>
	<path class="st1" d="M18.8,4.3c0,0.1,0.1,0.2,0.2,0.2c0.1,0,0.2-0.1,0.2-0.2c0-0.1-0.1-0.2-0.2-0.2C18.9,4.1,18.8,4.2,18.8,4.3"/>
	<path class="st6" d="M18.8,4.3c0,0.1,0.1,0.2,0.2,0.2c0.1,0,0.2-0.1,0.2-0.2c0-0.1-0.1-0.2-0.2-0.2C18.9,4.1,18.8,4.2,18.8,4.3z"/>
	<path class="st1" d="M18.6,9.9c0,0.1,0.1,0.2,0.2,0.2s0.2-0.1,0.2-0.2S19,9.7,18.9,9.7S18.6,9.8,18.6,9.9"/>
	<path class="st6" d="M18.6,9.9c0,0.1,0.1,0.2,0.2,0.2s0.2-0.1,0.2-0.2S19,9.7,18.9,9.7S18.6,9.8,18.6,9.9z"/>
	<path class="st1" d="M20.5,13c0,0.1,0.1,0.2,0.2,0.2c0.1,0,0.2-0.1,0.2-0.2c0-0.1-0.1-0.2-0.2-0.2C20.6,12.8,20.5,12.9,20.5,13"/>
	<path class="st6" d="M20.5,13c0,0.1,0.1,0.2,0.2,0.2c0.1,0,0.2-0.1,0.2-0.2c0-0.1-0.1-0.2-0.2-0.2C20.6,12.8,20.5,12.9,20.5,13z"/>
	<path class="st1" d="M15.8,13.2c0,0.1,0.1,0.2,0.2,0.2c0.1,0,0.2-0.1,0.2-0.2c0-0.1-0.1-0.2-0.2-0.2C15.9,13,15.8,13.1,15.8,13.2"
		/>
	<path class="st6" d="M15.8,13.2c0,0.1,0.1,0.2,0.2,0.2c0.1,0,0.2-0.1,0.2-0.2c0-0.1-0.1-0.2-0.2-0.2C15.9,13,15.8,13.1,15.8,13.2z"
		/>
	<path class="st1" d="M10.7,12.9c0,0.1,0.1,0.2,0.2,0.2s0.2-0.1,0.2-0.2s-0.1-0.2-0.2-0.2S10.7,12.8,10.7,12.9"/>
	<path class="st6" d="M10.7,12.9c0,0.1,0.1,0.2,0.2,0.2s0.2-0.1,0.2-0.2s-0.1-0.2-0.2-0.2S10.7,12.8,10.7,12.9z"/>
	<path class="st1" d="M12.1,15.6c0,0.1,0.1,0.2,0.2,0.2c0.1,0,0.2-0.1,0.2-0.2c0-0.1-0.1-0.2-0.2-0.2C12.2,15.4,12.1,15.5,12.1,15.6
		"/>
	<path class="st6" d="M12.1,15.6c0,0.1,0.1,0.2,0.2,0.2c0.1,0,0.2-0.1,0.2-0.2c0-0.1-0.1-0.2-0.2-0.2C12.2,15.4,12.1,15.5,12.1,15.6
		z"/>
	<path class="st1" d="M10.1,15c0,0.1,0.1,0.2,0.2,0.2s0.2-0.1,0.2-0.2c0-0.1-0.1-0.2-0.2-0.2S10.1,14.9,10.1,15"/>
	<path class="st6" d="M10.1,15c0,0.1,0.1,0.2,0.2,0.2c0.1,0,0.2-0.1,0.2-0.2c0-0.1-0.1-0.2-0.2-0.2C10.2,14.8,10.1,14.9,10.1,15z"/>
	<g>
		<defs>
			<rect id="SVGID_00000119817834719919769000000003240463121652729742_" x="22" y="9.6" width="0.5" height="0.6"/>
		</defs>
		<clipPath id="SVGID_00000003075084298015419330000010122844531688351421_">
			<use xlink:href="#SVGID_00000119817834719919769000000003240463121652729742_"  style="overflow:visible;"/>
		</clipPath>
		<g style="clip-path:url(#SVGID_00000003075084298015419330000010122844531688351421_);">
			<path class="st1" d="M22.1,9.9c0,0.1,0.1,0.2,0.2,0.2s0.2-0.1,0.2-0.2c0-0.1-0.1-0.2-0.2-0.2S22.1,9.8,22.1,9.9"/>
		</g>
	</g>
	<g>
		<defs>
			<rect id="SVGID_00000111898527875163994810000004477817329098033797_" x="21.1" y="8.8" width="1.4" height="2.2"/>
		</defs>
		<clipPath id="SVGID_00000005267312557965986400000006848185852400774061_">
			<use xlink:href="#SVGID_00000111898527875163994810000004477817329098033797_"  style="overflow:visible;"/>
		</clipPath>
		<g style="clip-path:url(#SVGID_00000005267312557965986400000006848185852400774061_);">
			<path class="st6" d="M22.1,9.9c0,0.1,0.1,0.2,0.2,0.2s0.2-0.1,0.2-0.2c0-0.1-0.1-0.2-0.2-0.2S22.1,9.8,22.1,9.9z"/>
		</g>
	</g>
	<path class="st1" d="M4.2,3.6c0,0.1,0.1,0.2,0.2,0.2c0.1,0,0.2-0.1,0.2-0.2c0-0.1-0.1-0.2-0.2-0.2C4.3,3.4,4.2,3.5,4.2,3.6"/>
	<path class="st6" d="M4.2,3.6c0,0.1,0.1,0.2,0.2,0.2c0.1,0,0.2-0.1,0.2-0.2c0-0.1-0.1-0.2-0.2-0.2C4.3,3.4,4.2,3.5,4.2,3.6z"/>
	<path class="st1" d="M8.4,6.6c0,0.1,0.1,0.2,0.2,0.2c0.1,0,0.2-0.1,0.2-0.2c0-0.1-0.1-0.2-0.2-0.2C8.5,6.4,8.4,6.4,8.4,6.6"/>
	<path class="st6" d="M8.4,6.6c0,0.1,0.1,0.2,0.2,0.2c0.1,0,0.2-0.1,0.2-0.2c0-0.1-0.1-0.2-0.2-0.2C8.5,6.4,8.4,6.4,8.4,6.6z"/>
	<g>
		<defs>
			<rect id="SVGID_00000149349220437536886040000003148918132047722391_" x="1.5" y="8.9" width="0.5" height="0.6"/>
		</defs>
		<clipPath id="SVGID_00000082362495045133591420000005562224147324245911_">
			<use xlink:href="#SVGID_00000149349220437536886040000003148918132047722391_"  style="overflow:visible;"/>
		</clipPath>
		<g style="clip-path:url(#SVGID_00000082362495045133591420000005562224147324245911_);">
			<path class="st1" d="M1.5,9.2c0,0.1,0.1,0.2,0.2,0.2c0.1,0,0.2-0.1,0.2-0.2C1.9,9.1,1.9,9,1.7,9C1.6,9,1.5,9.1,1.5,9.2"/>
		</g>
	</g>
	<g>
		<defs>
			<rect id="SVGID_00000166642556466065729160000017935563634538726066_" x="1.5" y="8" width="1.4" height="2.2"/>
		</defs>
		<clipPath id="SVGID_00000103972767119784154140000007514215978574643642_">
			<use xlink:href="#SVGID_00000166642556466065729160000017935563634538726066_"  style="overflow:visible;"/>
		</clipPath>
		<g style="clip-path:url(#SVGID_00000103972767119784154140000007514215978574643642_);">
			<path class="st6" d="M1.5,9.2c0,0.1,0.1,0.2,0.2,0.2c0.1,0,0.2-0.1,0.2-0.2C1.9,9.1,1.9,9,1.7,9C1.6,9,1.5,9.1,1.5,9.2z"/>
		</g>
	</g>
	<path class="st1" d="M4.4,11.5c0,0.1,0.1,0.2,0.2,0.2c0.1,0,0.2-0.1,0.2-0.2c0-0.1-0.1-0.2-0.2-0.2C4.4,11.3,4.4,11.4,4.4,11.5"/>
	<path class="st6" d="M4.4,11.5c0,0.1,0.1,0.2,0.2,0.2c0.1,0,0.2-0.1,0.2-0.2c0-0.1-0.1-0.2-0.2-0.2C4.4,11.3,4.4,11.4,4.4,11.5z"/>
	<path class="st1" d="M1.8,13.4c0,0.1,0.1,0.2,0.2,0.2c0.1,0,0.2-0.1,0.2-0.2c0-0.1-0.1-0.2-0.2-0.2C1.9,13.2,1.8,13.3,1.8,13.4"/>
	<g>
		<defs>
			<rect id="SVGID_00000127727258082237435020000017541106170337476269_" x="1.5" y="12.3" width="1.7" height="2.2"/>
		</defs>
		<clipPath id="SVGID_00000042736904398438406360000018285746953594869423_">
			<use xlink:href="#SVGID_00000127727258082237435020000017541106170337476269_"  style="overflow:visible;"/>
		</clipPath>
		<g style="clip-path:url(#SVGID_00000042736904398438406360000018285746953594869423_);">
			<path class="st6" d="M1.8,13.4c0,0.1,0.1,0.2,0.2,0.2c0.1,0,0.2-0.1,0.2-0.2c0-0.1-0.1-0.2-0.2-0.2C1.9,13.2,1.8,13.3,1.8,13.4z"
				/>
		</g>
	</g>
	<path class="st1" d="M3.3,14.6c0,0.1,0.1,0.2,0.2,0.2c0.1,0,0.2-0.1,0.2-0.2c0-0.1-0.1-0.2-0.2-0.2C3.4,14.4,3.3,14.5,3.3,14.6"/>
	<path class="st6" d="M3.3,14.6c0,0.1,0.1,0.2,0.2,0.2c0.1,0,0.2-0.1,0.2-0.2s-0.1-0.2-0.2-0.2C3.4,14.4,3.3,14.5,3.3,14.6z"/>
	<path class="st1" d="M7.6,14.3c0,0.1,0.1,0.2,0.2,0.2c0.1,0,0.2-0.1,0.2-0.2c0-0.1-0.1-0.2-0.2-0.2C7.7,14.1,7.6,14.2,7.6,14.3"/>
	<path class="st6" d="M7.6,14.3c0,0.1,0.1,0.2,0.2,0.2c0.1,0,0.2-0.1,0.2-0.2c0-0.1-0.1-0.2-0.2-0.2C7.7,14.1,7.6,14.2,7.6,14.3z"/>
	<path class="st1" d="M9.7,16.4c0,0.1,0.1,0.2,0.2,0.2c0.1,0,0.2-0.1,0.2-0.2c0-0.1-0.1-0.2-0.2-0.2C9.8,16.2,9.7,16.2,9.7,16.4"/>
	<path class="st6" d="M9.7,16.4c0,0.1,0.1,0.2,0.2,0.2c0.1,0,0.2-0.1,0.2-0.2c0-0.1-0.1-0.2-0.2-0.2C9.8,16.2,9.7,16.2,9.7,16.4z"/>
	<path class="st1" d="M2.9,16.2c0,0.1,0.1,0.2,0.2,0.2c0.1,0,0.2-0.1,0.2-0.2c0-0.1-0.1-0.2-0.2-0.2C3,15.9,2.9,16,2.9,16.2"/>
	<path class="st6" d="M2.9,16.2c0,0.1,0.1,0.2,0.2,0.2c0.1,0,0.2-0.1,0.2-0.2c0-0.1-0.1-0.2-0.2-0.2C3,15.9,2.9,16,2.9,16.2z"/>
	<path class="st1" d="M5.1,17.8c0,0.1,0.1,0.2,0.2,0.2c0.1,0,0.2-0.1,0.2-0.2c0-0.1-0.1-0.2-0.2-0.2C5.2,17.6,5.1,17.7,5.1,17.8"/>
	<path class="st6" d="M5.1,17.8c0,0.1,0.1,0.2,0.2,0.2c0.1,0,0.2-0.1,0.2-0.2c0-0.1-0.1-0.2-0.2-0.2C5.2,17.6,5.1,17.7,5.1,17.8z"/>
	<path class="st1" d="M8.9,18.3c0,0.1,0.1,0.2,0.2,0.2c0.1,0,0.2-0.1,0.2-0.2c0-0.1-0.1-0.2-0.2-0.2C8.9,18.1,8.9,18.2,8.9,18.3"/>
	<path class="st6" d="M8.9,18.3c0,0.1,0.1,0.2,0.2,0.2c0.1,0,0.2-0.1,0.2-0.2s-0.1-0.2-0.2-0.2C8.9,18.1,8.9,18.2,8.9,18.3z"/>
	<path class="st1" d="M11.2,17.7c0,0.1,0.1,0.2,0.2,0.2c0.1,0,0.2-0.1,0.2-0.2c0-0.1-0.1-0.2-0.2-0.2C11.3,17.5,11.2,17.6,11.2,17.7
		"/>
	<path class="st6" d="M11.2,17.7c0,0.1,0.1,0.2,0.2,0.2c0.1,0,0.2-0.1,0.2-0.2c0-0.1-0.1-0.2-0.2-0.2C11.3,17.5,11.2,17.6,11.2,17.7
		z"/>
	<path class="st1" d="M10,20.1c0,0.1,0.1,0.2,0.2,0.2s0.2-0.1,0.2-0.2c0-0.1-0.1-0.2-0.2-0.2S10,20,10,20.1"/>
	<path class="st6" d="M10,20.1c0,0.1,0.1,0.2,0.2,0.2s0.2-0.1,0.2-0.2c0-0.1-0.1-0.2-0.2-0.2S10,20,10,20.1z"/>
	<path class="st1" d="M9,20.8C9,20.9,9,21,9.2,21c0.1,0,0.2-0.1,0.2-0.2c0-0.1-0.1-0.2-0.2-0.2C9,20.6,9,20.7,9,20.8"/>
	<path class="st6" d="M9,20.8C9,20.9,9,21,9.2,21c0.1,0,0.2-0.1,0.2-0.2c0-0.1-0.1-0.2-0.2-0.2C9,20.6,9,20.7,9,20.8z"/>
	<path class="st1" d="M10.3,22.5c0,0.1,0.1,0.2,0.2,0.2s0.2-0.1,0.2-0.2c0-0.1-0.1-0.2-0.2-0.2S10.3,22.4,10.3,22.5"/>
	<g>
		<defs>
			<rect id="SVGID_00000016063430296681230570000000481086881833822642_" x="9.3" y="21.4" width="2.2" height="1.4"/>
		</defs>
		<clipPath id="SVGID_00000158730742525528102320000005777203026067027630_">
			<use xlink:href="#SVGID_00000016063430296681230570000000481086881833822642_"  style="overflow:visible;"/>
		</clipPath>
		<g style="clip-path:url(#SVGID_00000158730742525528102320000005777203026067027630_);">
			<path class="st6" d="M10.3,22.5c0,0.1,0.1,0.2,0.2,0.2s0.2-0.1,0.2-0.2c0-0.1-0.1-0.2-0.2-0.2S10.3,22.4,10.3,22.5z"/>
		</g>
	</g>
	<g>
		<g transform="translate(157.729951, 263.504569)">
		</g>
	</g>
</g>
<g id="Layer_8">
</g>
<g id="Layer_4">
</g>
<g id="Layer_5">
</g>
<g id="Layer_6">
</g>
<g id="Layer_3">
</g>
<g id="Layer_2">
</g>
</svg>
