<?xml version="1.0" encoding="utf-8"?>
<!-- Generator: Adobe Illustrator 26.0.3, SVG Export Plug-In . SVG Version: 6.00 Build 0)  -->
<svg version="1.1" id="svg4" xmlns:svg="http://www.w3.org/2000/svg"
	
	 xmlns="http://www.w3.org/2000/svg" xmlns:xlink="http://www.w3.org/1999/xlink" 
	 
	 width="20" height="20" x="0px" y="0px" viewBox="0 0 25 27"
	 style="enable-background:new 0 0 25 27;" xml:space="preserve">
<style type="text/css">
	.st0{fill:url(#path2_00000062163153672003749540000017207912665663124622_);}
</style>
<linearGradient id="path2_00000152975973566373269280000005094295894453472427_" gradientUnits="userSpaceOnUse" x1="0.332" y1="13.8154" x2="24.2668" y2="13.8154">
	<stop  offset="0" style="stop-color:#00D0D1"/>
	<stop  offset="1" style="stop-color:#2AFFC0"/>
</linearGradient>
<path id="path2" style="fill:url(#path2_00000152975973566373269280000005094295894453472427_);" d="M22.5,0.7c0,0,5,13.1-1.8,22.2
	c-4.2,5.6-10.8,4.4-15.2,2.9c1.5-3.4,3.4-6.1,5.8-8c1.2,0.6,3.2,0.8,6,0.5c-2.5-0.2-4.3-0.7-5.2-1.3l0.1,0.1c2.1-1.5,4.6-2.6,7.3-3
	c-3.2-0.3-6,0.3-8.6,1.8c-0.6-0.7-1.2-1.7-1.7-3c0.1,1.5,0.3,2.7,0.8,3.6c-2.6,1.8-5,4.6-6.9,8.4c-0.1,0-0.1-0.1-0.2-0.1
	c-0.8-0.4-1.3-1-1.8-2C-1.9,13.4,4.6,8.3,11.1,8C23,7.5,22.5,0.7,22.5,0.7z"/>
</svg>
