<?xml version="1.0" encoding="UTF-8"?><svg id="Layer_2" xmlns="http://www.w3.org/2000/svg" viewBox="0 0 27.14 30.3"><g id="Mask"><g><path d="M23.85,21.57c-.28-.18-.51-.42-.67-.71l-1.58-2.9-1.58,2.9c-.17,.32-.42,.58-.73,.76h0s-2.97,1.63-2.97,1.63l2.97,1.63c.31,.19,.56,.45,.73,.76l.02,.05,.37,.67c1.44-1.29,2.6-2.9,3.45-4.79Z"/><path d="M19,26.19c-.08-.15-.2-.27-.35-.35l-3.3-1.81c-.29-.16-.46-.46-.46-.78,0-.32,.17-.61,.44-.77l.03-.02,3.3-1.81c.15-.08,.27-.2,.35-.35l1.83-3.34c.16-.27,.45-.44,.77-.44s.63,.18,.78,.46l1.81,3.31c.03,.05,.07,.1,.11,.15,1.34-3.58,1.74-8,1.17-12.96,0-.23-.43-4.77-1.08-7.09-.12-.42-.64-.56-.95-.25-1.88,1.91-3.65,3.08-4.97,3.82-3.45,1.92-5.13,1.58-10.82,4.28C3.14,10.31-.37,13.92,.03,19.54c.05,1.29,.83,4.17,2.37,5.91,.97,1.15,2.05,1.85,2.83,2.26,.36,.19,.79-.06,.82-.46,.06-.74,.14-1.36,.29-1.98,.31-1.22,.41-1.6,1.15-2.93,.65-1.13,1.33-1.91,1.86-2.53,.5-.58,1.26-1.45,2.38-2.35,.58-.44,2-1.61,2.68-2.17,.15-.12,.49-.38,.76-.61,.85-.72,2.33-2.32,3-3.22,.96-1.22,1.13-1.74,1.3-1.74,.31,.1,.13,.74-1.21,3.07-.38,.65-1,1.6-1.62,2.35-.98,1.19-2.96,2.9-3.91,3.71-1.7,1.52-2.83,3.06-3.58,4.29-.5,.84-.73,1.39-.78,1.53-.06,.15-.31,.78-.47,1.51-1.07,4.6,.35,4.78,5.68,3.33,1.81-.46,3.28-.96,4.26-1.33,.59-.31,1.14-.68,1.66-1.07l-.5-.91Z"/><path d="M23.48,20.84h0c.12,.22,.3,.4,.53,.53h0s2.99,1.63,2.99,1.63h0c.2,.11,.2,.4,0,.51h0s-2.99,1.63-2.99,1.63h0c-.22,.12-.4,.3-.53,.53h0s-1.63,2.99-1.63,2.99h0c-.11,.2-.4,.2-.51,0h0s-1.63-2.99-1.63-2.99h0c-.12-.22-.3-.4-.53-.53h0s-2.99-1.63-2.99-1.63h0c-.2-.11-.2-.4,0-.51h0s2.99-1.63,2.99-1.63h0c.22-.12,.4-.3,.53-.53h0s1.63-2.99,1.63-2.99h0c.11-.2,.4-.2,.51,0h0"/></g></g></svg>