<svg xmlns="http://www.w3.org/2000/svg" xmlns:xlink="http://www.w3.org/1999/xlink" viewBox="0 0 120 24"><defs><style>.a,.e,.k{fill:none;}.b{fill:#0a0a0a;}.c{isolation:isolate;font-size:21px;font-family:AvenirNextLTPro-Bold, Avenir Next LT Pro;font-weight:700;}.c,.n{fill:#fff;}.d{clip-path:url(#a);}.e,.k{stroke:#1f7ea1;stroke-miterlimit:10;}.e{stroke-width:0.06px;}.f{clip-path:url(#b);}.g{clip-path:url(#c);}.h{clip-path:url(#d);}.i{clip-path:url(#e);}.j{clip-path:url(#f);}.k{stroke-width:0.12px;}.l{clip-path:url(#g);}.m{clip-path:url(#h);}.o{clip-path:url(#i);}.p{clip-path:url(#j);}.q{clip-path:url(#k);}.r{clip-path:url(#l);}.s{clip-path:url(#m);}.t{clip-path:url(#n);}.u{clip-path:url(#o);}</style><clipPath id="a"><rect class="a" x="17.97" y="9.04" width="4.53" height="4.89"/></clipPath><clipPath id="b"><rect class="a" x="7.76" y="1.22" width="8.77" height="6.96"/></clipPath><clipPath id="c"><rect class="a" x="3.45" y="1.22" width="8.77" height="6.24"/></clipPath><clipPath id="d"><rect class="a" x="1.5" y="5.74" width="7.98" height="6.76"/></clipPath><clipPath id="e"><rect class="a" x="1.5" y="10.77" width="3.96" height="4.74"/></clipPath><clipPath id="f"><rect class="a" x="1.5" y="1.22" width="21" height="16.16"/></clipPath><clipPath id="g"><rect class="a" x="1.5" y="12.96" width="11.58" height="9.82"/></clipPath><clipPath id="h"><rect class="a" x="11.21" y="1.22" width="0.58" height="0.49"/></clipPath><clipPath id="i"><rect class="a" x="10.35" y="1.22" width="2.16" height="1.36"/></clipPath><clipPath id="j"><rect class="a" x="21.99" y="9.62" width="0.51" height="0.58"/></clipPath><clipPath id="k"><rect class="a" x="21.13" y="8.75" width="1.37" height="2.16"/></clipPath><clipPath id="l"><rect class="a" x="1.5" y="8.9" width="0.51" height="0.58"/></clipPath><clipPath id="m"><rect class="a" x="1.5" y="8.04" width="1.37" height="2.16"/></clipPath><clipPath id="n"><rect class="a" x="1.5" y="12.35" width="1.66" height="2.16"/></clipPath><clipPath id="o"><rect class="a" x="9.34" y="21.41" width="2.16" height="1.38"/></clipPath></defs><rect class="b" width="120" height="23.9"/><text class="c" transform="translate(22.6 18.88)">AI Cues</text><g class="d"><path class="e" d="M22.31,9.92H18.85L20.69,13Z"/></g><path class="e" d="M16,13.1l2.81-3.18L15.64,7.33Z"/><path class="e" d="M19.07,4.26l-.22,5.66L15.64,7.33Z"/><g class="f"><path class="e" d="M11.34,1.5l4.3,5.83-7-.78Z"/></g><g class="g"><path class="e" d="M8.62,6.55,4.4,3.61,11.34,1.5Z"/></g><path class="e" d="M16,13.1,8.62,6.55,11,12.81Z"/><path class="e" d="M12.33,15.57,11,12.81,10.24,15Z"/><g class="h"><path class="e" d="M8.62,6.55,1.74,9.17,4.55,11.6Z"/></g><g class="i"><path class="e" d="M3.57,14.6l1-3L2,13.5Z"/></g><path class="e" d="M11,12.81,7.82,14.32,4.55,11.6Z"/><g class="j"><path class="k" d="M22.31,9.92,19,4.26,11.44,1.45l-7,2.16L1.74,9.17,2,13.55,3.6,14.66l4.26-.39,4.43,1.36,3.64-2.51,4.77-.2Z"/></g><g class="l"><path class="k" d="M3.51,14.6,3.1,16.17,5.27,17.9l3.78.42.07,2.52,1.4,1.74-.39-2.5,1.3-2.32L9.88,16.35l.47-1.26"/></g><g class="m"><path class="n" d="M11.27,1.45a.2.2,0,1,0,.2-.2.2.2,0,0,0-.2.2"/></g><g class="o"><path class="e" d="M11.27,1.45a.2.2,0,1,0,.2-.2A.2.2,0,0,0,11.27,1.45Z"/></g><path class="n" d="M15.43,7.33a.21.21,0,0,0,.21.21.2.2,0,0,0,.2-.21.2.2,0,0,0-.2-.2.2.2,0,0,0-.21.2"/><path class="e" d="M15.43,7.33a.21.21,0,0,0,.21.21.2.2,0,0,0,.2-.21.2.2,0,0,0-.2-.2A.2.2,0,0,0,15.43,7.33Z"/><path class="n" d="M18.81,4.29a.2.2,0,0,0,.2.2.2.2,0,1,0,0-.4.2.2,0,0,0-.2.2"/><path class="e" d="M18.81,4.29a.2.2,0,0,0,.2.2.2.2,0,1,0,0-.4A.2.2,0,0,0,18.81,4.29Z"/><path class="n" d="M18.65,9.92a.2.2,0,1,0,.2-.2.2.2,0,0,0-.2.2"/><path class="e" d="M18.65,9.92a.2.2,0,1,0,.2-.2A.2.2,0,0,0,18.65,9.92Z"/><path class="n" d="M20.47,13a.2.2,0,1,0,.4,0,.2.2,0,1,0-.4,0"/><path class="e" d="M20.47,13a.2.2,0,1,0,.4,0,.2.2,0,1,0-.4,0Z"/><path class="n" d="M15.84,13.17a.2.2,0,0,0,.4,0,.2.2,0,1,0-.4,0"/><path class="e" d="M15.84,13.17a.2.2,0,0,0,.4,0,.2.2,0,1,0-.4,0Z"/><path class="n" d="M10.75,12.88a.2.2,0,1,0,.2-.2.2.2,0,0,0-.2.2"/><path class="e" d="M10.75,12.88a.2.2,0,1,0,.2-.2A.2.2,0,0,0,10.75,12.88Z"/><path class="n" d="M12.07,15.57a.21.21,0,0,0,.21.21.2.2,0,0,0,.2-.21.2.2,0,0,0-.2-.2.2.2,0,0,0-.21.2"/><path class="e" d="M12.07,15.57a.21.21,0,0,0,.21.21.2.2,0,0,0,.2-.21.2.2,0,0,0-.2-.2A.2.2,0,0,0,12.07,15.57Z"/><path class="n" d="M10.08,15a.2.2,0,1,0,.2-.2.2.2,0,0,0-.2.2"/><path class="e" d="M10.08,15a.2.2,0,1,0,.2-.2A.2.2,0,0,0,10.08,15Z"/><g class="p"><path class="n" d="M22.08,9.89a.2.2,0,1,0,.2-.2.2.2,0,0,0-.2.2"/></g><g class="q"><path class="e" d="M22.08,9.89a.2.2,0,1,0,.2-.2A.2.2,0,0,0,22.08,9.89Z"/></g><path class="n" d="M4.23,3.59a.2.2,0,1,0,.4,0,.2.2,0,1,0-.4,0"/><path class="e" d="M4.23,3.59a.2.2,0,1,0,.4,0,.2.2,0,1,0-.4,0Z"/><path class="n" d="M8.42,6.55a.2.2,0,1,0,.4,0,.2.2,0,0,0-.4,0"/><path class="e" d="M8.42,6.55a.2.2,0,1,0,.4,0,.2.2,0,0,0-.4,0Z"/><g class="r"><path class="n" d="M1.54,9.17a.2.2,0,0,0,.2.2.2.2,0,1,0,0-.4.2.2,0,0,0-.2.2"/></g><g class="s"><path class="e" d="M1.54,9.17a.2.2,0,0,0,.2.2.2.2,0,1,0,0-.4A.2.2,0,0,0,1.54,9.17Z"/></g><path class="n" d="M4.35,11.53a.2.2,0,0,0,.2.2.2.2,0,1,0,0-.4.2.2,0,0,0-.2.2"/><path class="e" d="M4.35,11.53a.2.2,0,0,0,.2.2.2.2,0,1,0,0-.4A.2.2,0,0,0,4.35,11.53Z"/><path class="n" d="M1.8,13.43a.2.2,0,1,0,.2-.2.2.2,0,0,0-.2.2"/><g class="t"><path class="e" d="M1.8,13.43a.2.2,0,1,0,.2-.2A.2.2,0,0,0,1.8,13.43Z"/></g><path class="n" d="M3.33,14.6a.2.2,0,0,0,.21.2.2.2,0,1,0,0-.4.2.2,0,0,0-.21.2"/><path class="e" d="M3.33,14.6a.2.2,0,0,0,.21.2.2.2,0,1,0,0-.4A.2.2,0,0,0,3.33,14.6Z"/><path class="n" d="M7.61,14.29a.2.2,0,1,0,.2-.2.2.2,0,0,0-.2.2"/><path class="e" d="M7.61,14.29a.2.2,0,1,0,.2-.2A.2.2,0,0,0,7.61,14.29Z"/><path class="n" d="M9.67,16.35a.2.2,0,0,0,.2.2.2.2,0,1,0,0-.4.2.2,0,0,0-.2.2"/><path class="e" d="M9.67,16.35a.2.2,0,0,0,.2.2.2.2,0,1,0,0-.4A.2.2,0,0,0,9.67,16.35Z"/><path class="n" d="M2.9,16.15a.2.2,0,0,0,.2.2.2.2,0,1,0,0-.4.2.2,0,0,0-.2.2"/><path class="e" d="M2.9,16.15a.2.2,0,0,0,.2.2.2.2,0,1,0,0-.4A.2.2,0,0,0,2.9,16.15Z"/><path class="n" d="M5.09,17.83a.2.2,0,0,0,.21.2.2.2,0,0,0,.2-.2.2.2,0,0,0-.2-.21.21.21,0,0,0-.21.21"/><path class="e" d="M5.09,17.83a.2.2,0,0,0,.21.2.2.2,0,0,0,.2-.2.2.2,0,0,0-.2-.21A.21.21,0,0,0,5.09,17.83Z"/><path class="n" d="M8.85,18.31a.2.2,0,0,0,.2.2.2.2,0,0,0,.21-.2.21.21,0,1,0-.41,0"/><path class="e" d="M8.85,18.31a.2.2,0,0,0,.2.2.2.2,0,0,0,.21-.2.21.21,0,1,0-.41,0Z"/><path class="n" d="M11.18,17.73a.2.2,0,1,0,.2-.2.2.2,0,0,0-.2.2"/><path class="e" d="M11.18,17.73a.2.2,0,1,0,.2-.2A.2.2,0,0,0,11.18,17.73Z"/><path class="n" d="M10,20.07a.2.2,0,0,0,.21.2.2.2,0,0,0,0-.4.2.2,0,0,0-.21.2"/><path class="e" d="M10,20.07a.2.2,0,0,0,.21.2.2.2,0,0,0,0-.4A.2.2,0,0,0,10,20.07Z"/><path class="n" d="M9,20.81a.2.2,0,1,0,.2-.2.2.2,0,0,0-.2.2"/><path class="e" d="M9,20.81a.2.2,0,1,0,.2-.2A.2.2,0,0,0,9,20.81Z"/><path class="n" d="M10.26,22.48a.2.2,0,1,0,.4,0,.2.2,0,0,0-.4,0"/><g class="u"><path class="e" d="M10.26,22.48a.2.2,0,1,0,.4,0,.2.2,0,0,0-.4,0Z"/></g></svg>