<svg xmlns="http://www.w3.org/2000/svg" xmlns:xlink="http://www.w3.org/1999/xlink" viewBox="0 0 300 300"><defs><style>.a{fill:url(#a);}.b{fill:#320d45;}</style><linearGradient id="a" x1="150" y1="300" x2="150" gradientUnits="userSpaceOnUse"><stop offset="0" stop-color="#00d0d1"/><stop offset="1" stop-color="#2affc0"/></linearGradient></defs><rect class="a" width="300" height="300"/><path class="b" d="M208.53,104.37c1.68,33.33-25.72,60.22-58.38,60.92s-60-28.65-58.38-60.92a4.94,4.94,0,0,0-4.92-4.92H45.12a5,5,0,0,0-4.93,4.92C38.58,165.8,89.48,216,150.15,216.81s111.6-52.18,110-112.44a5,5,0,0,0-4.92-4.92H213.46c-6.35,0-6.35,9.84,0,9.84H255.2l-4.92-4.92c1.51,56.06-44.7,101.88-100.13,102.6S48.59,159.36,50,104.37l-4.92,4.92H86.85l-4.92-4.92c-2,38.72,30.48,70,68.22,70.76s70.11-33.25,68.23-70.76C218.06,98.06,208.22,98,208.53,104.37Z"/><path class="b" d="M176.13,100.89q-14.73,14.73-29.47,29.47h7q-14.73-14.73-29.47-29.47v7l29.47-29.47h-7q14.75,14.73,29.47,29.47c4.49,4.49,11.45-2.47,7-7L153.62,71.42a5,5,0,0,0-7,0L117.2,100.89a5,5,0,0,0,0,7l29.46,29.47a5,5,0,0,0,7,0l29.47-29.47C187.58,103.36,180.62,96.4,176.13,100.89Z"/></svg>