<svg xmlns="http://www.w3.org/2000/svg" viewBox="0 0 300 300"><defs><style>.a{fill:#80192e;}.b{fill:#fff;stroke:#320d45;stroke-linecap:round;stroke-miterlimit:10;}</style></defs><rect class="a" width="300" height="300"/><path class="b" d="M71.27,125.67A113.67,113.67,0,0,1,77.17,87a69.68,69.68,0,0,1,16.3-26.59A64.64,64.64,0,0,1,118.55,45a101.92,101.92,0,0,1,32.36-5,92.45,92.45,0,0,1,33.62,5.77,67.75,67.75,0,0,1,24.33,16A69.4,69.4,0,0,1,223.66,86a88.57,88.57,0,0,1,5,30.6,84.33,84.33,0,0,1-15,51.93A81.51,81.51,0,0,1,173,197.79l34,16.68a27.84,27.84,0,0,1,14.92,16.31A41.5,41.5,0,0,1,217.51,260l-89.3-45.28a129.52,129.52,0,0,1-29.6-18.94A75.23,75.23,0,0,1,81.3,175.09a70.87,70.87,0,0,1-8-23.2A157.71,157.71,0,0,1,71.27,125.67Zm74.12,58.2,10.54,5.39q6.57-6,12.54-12.54a67.72,67.72,0,0,0,9.66-13.67,62.7,62.7,0,0,0,6-16.05,94.56,94.56,0,0,0,2-21,65.47,65.47,0,0,0-9.54-39.38,31.47,31.47,0,0,0-26.71-13,31.86,31.86,0,0,0-27.22,12.55A64.53,64.53,0,0,0,113,125.55a102,102,0,0,0,1.88,21.07,49.91,49.91,0,0,0,6,15.3,47,47,0,0,0,10,11.79A106.4,106.4,0,0,0,145.39,183.87Z"/></svg>