<svg id="Layer_1" data-name="Layer 1" xmlns="http://www.w3.org/2000/svg" xmlns:xlink="http://www.w3.org/1999/xlink" viewBox="0 0 113.16 23.82"><defs><style>.cls-1{isolation:isolate;}.cls-2{fill:#fff;}.cls-3{fill:url(#linear-gradient);}</style><linearGradient id="linear-gradient" x1="270.06" y1="-908.73" x2="293.99" y2="-908.73" gradientTransform="matrix(0.74, 0, 0, -0.74, -199.69, -663.26)" gradientUnits="userSpaceOnUse"><stop offset="0" stop-color="#00d0d1"/><stop offset="1" stop-color="#2affc0"/></linearGradient></defs><g id="svg4"><g id="text"><g class="cls-1"><path class="cls-2" d="M31.78,6.4a3.58,3.58,0,0,0-3.07-1.49,2.93,2.93,0,0,0-3.17,2.8c0,1.89,1.58,2.37,3.24,2.91,2.1.7,4.41,1.37,4.41,4.35s-2.5,4.28-4.85,4.28a5.75,5.75,0,0,1-4.69-2.2l1.31-1A3.94,3.94,0,0,0,28.36,18a3.06,3.06,0,0,0,3.29-2.87c0-2.08-1.74-2.61-3.63-3.2s-4-1.46-4-4.15c0-2.88,2.56-4.1,4.75-4.1A5.19,5.19,0,0,1,33,5.44Z" transform="translate(-0.35 -0.1)"/><path class="cls-2" d="M37.62,9.05c0,.53.08,1.26.08,1.68h0A3.85,3.85,0,0,1,41.1,8.8c2.5,0,3.74,1.62,3.74,4v6H43.41V13.44c0-2.06-.61-3.44-2.66-3.44-1.52,0-3,1.21-3,3.84v5H36.34V11.21c0-.52,0-1.49-.09-2.16Z" transform="translate(-0.35 -0.1)"/><path class="cls-2" d="M54.73,12.54A2.29,2.29,0,0,0,52.11,10a4.18,4.18,0,0,0-2.92,1.15l-.8-1a5.53,5.53,0,0,1,3.86-1.4c2.13,0,3.83,1.17,3.83,3.57v4.3a14.2,14.2,0,0,0,.16,2.21H55a10.35,10.35,0,0,1-.14-1.6h0a4,4,0,0,1-3.57,1.85c-1.49,0-3.4-.8-3.4-3,0-3,3.34-3.3,6.93-3.3ZM54.31,14c-2.33,0-5,.25-5,2.12,0,1.41,1.2,1.87,2.31,1.87a3.06,3.06,0,0,0,3.15-3.25V14Z" transform="translate(-0.35 -0.1)"/><path class="cls-2" d="M61.18,23.92H59.75V9.05h1.43v1.7h.06a4.41,4.41,0,0,1,3.7-1.95A4.94,4.94,0,0,1,70,14a4.94,4.94,0,0,1-5.08,5.17,4.55,4.55,0,0,1-3.7-1.91h-.06ZM64.79,10A3.77,3.77,0,0,0,61,14a3.76,3.76,0,0,0,3.78,3.95A3.65,3.65,0,0,0,68.51,14,3.66,3.66,0,0,0,64.79,10Z" transform="translate(-0.35 -0.1)"/><path class="cls-2" d="M77.73,8.8a3,3,0,0,1,3,2.08A3.63,3.63,0,0,1,84.19,8.8c2.5,0,3.74,1.62,3.74,4v6H86.5V13.44C86.5,11.38,85.81,10,84,10c-2,0-2.79,1.82-2.79,3.65v5.23H79.74V13.14c0-1.91-.46-3.14-2.37-3.14-1.36,0-2.86,1.21-2.86,3.84v5H73.09V11.21c0-.52,0-1.49-.09-2.16h1.37c0,.53.08,1.26.08,1.68h0A3.64,3.64,0,0,1,77.73,8.8Z" transform="translate(-0.35 -0.1)"/><path class="cls-2" d="M92.37,6.28a1,1,0,1,1,1-1A1,1,0,0,1,92.37,6.28Zm.71,12.6H91.65V9.05h1.43Z" transform="translate(-0.35 -0.1)"/><path class="cls-2" d="M98.16,9.05c0,.53.08,1.26.08,1.68h.05a3.83,3.83,0,0,1,3.36-1.93c2.49,0,3.73,1.62,3.73,4v6H104V13.44c0-2.06-.61-3.44-2.67-3.44-1.51,0-3,1.21-3,3.84v5H96.88V11.21c0-.52,0-1.49-.08-2.16Z" transform="translate(-0.35 -0.1)"/><path class="cls-2" d="M113.51,10.25h-2.77V16c0,1.47.61,1.8,1.47,1.8a2.91,2.91,0,0,0,1.24-.31l.06,1.24a4.58,4.58,0,0,1-1.68.29,2.34,2.34,0,0,1-2.52-2.62V10.25h-2V9.05h2V6.28h1.43V9.05h2.77Z" transform="translate(-0.35 -0.1)"/></g></g><path id="icon" class="cls-3" d="M16.8.1s3.7,9.7-1.3,16.4c-3.1,4.1-8,3.3-11.3,2.1a14.83,14.83,0,0,1,4.3-5.9,9.18,9.18,0,0,0,4.4.4,7.71,7.71,0,0,1-3.9-1l.1.1A12.87,12.87,0,0,1,14.5,10a10.75,10.75,0,0,0-6.4,1.3A10.63,10.63,0,0,1,6.8,9.1a6.74,6.74,0,0,0,.6,2.7A16.2,16.2,0,0,0,2.3,18a.1.1,0,0,1-.1-.1A2.46,2.46,0,0,1,.9,16.4c-2.2-7,2.6-10.7,7.4-11C17.2,5.2,16.8.1,16.8.1Z" transform="translate(-0.35 -0.1)"/></g></svg>