<svg id="Layer_1" data-name="Layer 1" xmlns="http://www.w3.org/2000/svg" xmlns:xlink="http://www.w3.org/1999/xlink" viewBox="0 0 119.38 23.82"><defs><style>.cls-1{isolation:isolate;}.cls-2{fill:#fff;}.cls-3{fill:url(#linear-gradient);}</style><linearGradient id="linear-gradient" x1="270.06" y1="-908.73" x2="293.99" y2="-908.73" gradientTransform="matrix(0.74, 0, 0, -0.74, -199.69, -663.26)" gradientUnits="userSpaceOnUse"><stop offset="0" stop-color="#00d0d1"/><stop offset="1" stop-color="#2affc0"/></linearGradient></defs><g id="svg4"><g id="text"><g class="cls-1"><path class="cls-2" d="M32,7.87a3.62,3.62,0,0,0-2.65-1.28c-.92,0-2.08.32-2.08,1.49,0,1,.89,1.31,2.29,1.75,2,.65,4.62,1.51,4.62,4.47,0,3.42-2.75,4.95-5.69,4.95a7.81,7.81,0,0,1-5.56-2.14l2.35-2.39a4.4,4.4,0,0,0,3.21,1.57c1.09,0,2.06-.42,2.06-1.61s-1.13-1.49-3.09-2.12-3.8-1.58-3.8-4.27c0-3.29,3-4.66,5.76-4.66a7.41,7.41,0,0,1,4.87,1.83Z" transform="translate(-0.35 -0.1)"/><path class="cls-2" d="M43.22,18.88V13.17c0-1.16-.31-2.21-1.55-2.21s-1.85,1-1.85,2.25v5.67H36.36V8.42H39.7V9.87h0a3.55,3.55,0,0,1,3.13-1.74c2.81,0,3.82,2.18,3.82,4.28v6.47Z" transform="translate(-0.35 -0.1)"/><path class="cls-2" d="M49.15,9.85a6.82,6.82,0,0,1,4.66-1.77c3.5,0,4.81,1.73,4.81,5.53v5.27H55.47V17.76H55.4a3.46,3.46,0,0,1-3,1.37c-1.66,0-3.8-.82-3.8-3.28,0-3,3.68-3.52,6.72-3.52v-.17c0-1-.82-1.51-1.89-1.51a4,4,0,0,0-2.58,1.07Zm6.32,4.47H55c-1.52,0-3.22.19-3.22,1.43,0,.8.8,1.07,1.49,1.07a2,2,0,0,0,2.17-2.14Z" transform="translate(-0.35 -0.1)"/><path class="cls-2" d="M67.84,19.17a3.93,3.93,0,0,1-3.17-1.45h0v6.2H61.18V8.42h3.28V9.7h.06a4.14,4.14,0,0,1,3.34-1.57c3,0,5,2.56,5,5.48S71,19.17,67.84,19.17ZM67,10.94a2.59,2.59,0,0,0-2.52,2.69A2.57,2.57,0,0,0,67,16.31a2.49,2.49,0,0,0,2.45-2.7A2.47,2.47,0,0,0,67,10.94Z" transform="translate(-0.35 -0.1)"/><path class="cls-2" d="M88.33,18.88V13.17c0-1.2-.27-2.21-1.49-2.21s-1.74,1.09-1.74,2.27v5.65H81.65v-6c0-1.19-.46-1.95-1.49-1.95s-1.72,1-1.72,2.25v5.67H75V8.42h3.33V9.87h0a3.49,3.49,0,0,1,3.13-1.74,3.28,3.28,0,0,1,3.14,1.78A3.76,3.76,0,0,1,88,8.13c2.84,0,3.8,2.31,3.8,4.28v6.47Z" transform="translate(-0.35 -0.1)"/><path class="cls-2" d="M96.14,7a1.93,1.93,0,0,1-2-1.89,2,2,0,0,1,4,0A1.92,1.92,0,0,1,96.14,7ZM94.42,18.88V8.42h3.45V18.88Z" transform="translate(-0.35 -0.1)"/><path class="cls-2" d="M107.46,18.88V13.17c0-1.16-.31-2.21-1.55-2.21s-1.85,1-1.85,2.25v5.67H100.6V8.42h3.34V9.87h0a3.55,3.55,0,0,1,3.13-1.74c2.81,0,3.82,2.18,3.82,4.28v6.47Z" transform="translate(-0.35 -0.1)"/><path class="cls-2" d="M117.27,11v4c0,1,.31,1.47,1.3,1.47a2.85,2.85,0,0,0,1-.17l0,2.52a6.42,6.42,0,0,1-2,.32c-2.8,0-3.72-1.49-3.72-3.72V11h-1.68V8.42h1.66V5.67h3.38V8.42h2.46V11Z" transform="translate(-0.35 -0.1)"/></g></g><path id="icon" class="cls-3" d="M16.8.1s3.7,9.7-1.3,16.4c-3.1,4.1-8,3.3-11.3,2.1a14.83,14.83,0,0,1,4.3-5.9,9.18,9.18,0,0,0,4.4.4,7.71,7.71,0,0,1-3.9-1l.1.1A12.87,12.87,0,0,1,14.5,10a10.75,10.75,0,0,0-6.4,1.3A10.63,10.63,0,0,1,6.8,9.1a6.74,6.74,0,0,0,.6,2.7A16.2,16.2,0,0,0,2.3,18a.1.1,0,0,1-.1-.1A2.46,2.46,0,0,1,.9,16.4c-2.2-7,2.6-10.7,7.4-11C17.2,5.2,16.8.1,16.8.1Z" transform="translate(-0.35 -0.1)"/></g></svg>