<svg xmlns="http://www.w3.org/2000/svg" viewBox="0 0 1377.57 950.29"><defs><style>.cls-1{opacity:0.3;}.cls-2{fill:#e6e6e6;}.cls-3{fill:#f2f2f2;}.cls-4{fill:#fff;}.cls-5{fill:#e6006b;}.cls-6{fill:#f763a8;}.cls-7{fill:#ffcce4;}</style></defs><g id="Shadow" class="cls-1"><path d="M360.17,668.14c2.88-.58,7.1.38,11.56,2.62,68.18,34.38,139.18,53.13,217.06,57.32a10,10,0,0,0,1.07-20c-75.06-4-143.46-22.1-209.13-55.21-8.63-4.35-17.12-5.86-24.53-4.36-12.32,2.51-20,12.86-20,27v691.56c0,20.6,15.94,45.37,35.5,55.21,67.68,34.13,138.12,52.85,215.33,57.22l.58,0a10,10,0,0,0,.55-20c-74.42-4.21-142.27-22.24-207.46-55.11-12.82-6.44-24.49-24.25-24.5-37.35V675.55C356.23,668.94,359.11,668.36,360.17,668.14Z" transform="translate(-320.22 -531.96)"/><path d="M1661.19,604.19c-217.57-109.71-436.74-42.39-648.7,22.71-121.93,37.45-248,76.17-371.17,79.79a12,12,0,0,0-2.71,23.6,835.21,835.21,0,0,0,102.36,20c-36.43,16.61-70.39,29.94-103,40.45a12,12,0,0,0,.62,23,833.31,833.31,0,0,0,102.36,20c-36.43,16.6-70.39,29.93-103,40.44a12,12,0,0,0,.62,23,835.21,835.21,0,0,0,102.36,20c-36.43,16.61-70.39,29.94-103,40.45a12,12,0,0,0,.62,23,835.21,835.21,0,0,0,102.36,20c-36.44,16.61-70.4,29.94-103,40.45a12,12,0,0,0,.62,23,833.31,833.31,0,0,0,102.36,20,958.24,958.24,0,0,1-103,40.45,12,12,0,0,0,.62,23,831.46,831.46,0,0,0,102.36,20c-36.44,16.61-70.4,29.94-103,40.45a12,12,0,0,0,.62,23,835.21,835.21,0,0,0,102.36,20c-36.43,16.61-70.39,29.94-103,40.45a12,12,0,0,0,.62,23,833.31,833.31,0,0,0,102.36,20c-36.43,16.6-70.4,29.94-103,40.45a12,12,0,0,0,.62,23,833.33,833.33,0,0,0,102.36,20c-36.43,16.61-70.39,29.94-103,40.45a12,12,0,0,0,3.68,23.43H642c126.41-3.71,254.06-42.92,377.52-80.83,104.29-32,212.14-65.16,317.61-76.16,117.23-12.24,219.69,4.76,313.25,51.94,12.73,6.4,25.33,6.8,34.58,1.1,8.26-5.09,12.81-14.16,12.81-25.53V661.19C1697.79,639.91,1681.36,614.34,1661.19,604.19Zm12.6,748.57c0,2.57-.55,4.58-1.4,5.1-1.27.78-5.29.86-11.2-2.11-217.57-109.71-436.74-42.39-648.7,22.71-93.52,28.72-189.48,58.2-284.69,72,19.81-8.52,40.28-18,61.61-28.53a12,12,0,0,0-4.21-22.71,908.47,908.47,0,0,1-100.74-14.75c33-12.45,67.7-27.66,104.95-46a12,12,0,0,0-4.21-22.71A906.12,906.12,0,0,1,684.46,1301c33-12.45,67.7-27.66,104.95-46a12,12,0,0,0-4.21-22.71,907.83,907.83,0,0,1-100.74-14.74c33-12.45,67.7-27.67,104.95-46a12,12,0,0,0-4.21-22.71A908.47,908.47,0,0,1,684.46,1134c33-12.45,67.7-27.67,104.95-46a12,12,0,0,0-4.21-22.71,905.42,905.42,0,0,1-100.74-14.75c33-12.44,67.7-27.66,104.95-46.05a12,12,0,0,0-4.21-22.71,906.17,906.17,0,0,1-100.74-14.74c33-12.45,67.7-27.67,104.95-46.05a12,12,0,0,0-4.21-22.71,907.77,907.77,0,0,1-100.74-14.75c33-12.45,67.7-27.66,104.95-46a12,12,0,0,0-4.21-22.71,906.12,906.12,0,0,1-100.74-14.75c33-12.45,67.7-27.66,104.95-46a12,12,0,0,0-4.21-22.71c-21.1-1.95-41.34-4.45-60.9-7.51,99.24-13.61,198.52-44.1,295.24-73.8,104.29-32,212.14-65.16,317.61-76.16,117.23-12.23,219.69,4.76,313.25,51.94,12.24,6.16,23.39,23.11,23.39,35.57Z" transform="translate(-320.22 -531.96)"/></g><g id="OBJECT"><path class="cls-2" d="M571.62,1465.55l-.57,0c-77.22-4.37-147.65-23.09-215.33-57.22-19.57-9.84-35.49-34.61-35.5-55.21V661.54c0-14.16,7.65-24.5,20-27,7.41-1.5,15.89,0,24.53,4.36,65.66,33.11,134.07,51.17,209.13,55.2a10,10,0,1,1-1.08,20c-77.87-4.19-148.87-22.94-217-57.32-4.46-2.25-8.68-3.2-11.56-2.62-1.07.22-3.94.8-3.94,7.4V1353.1c0,13.1,11.68,30.9,24.49,37.35,65.19,32.87,133.05,50.9,207.47,55.11a10,10,0,0,1-.56,20Z" transform="translate(-320.22 -531.96)"/><path class="cls-3" d="M571.62,1461.55h-.35c-76.65-4.34-146.57-22.92-213.75-56.8-18.36-9.23-33.3-32.4-33.3-51.64V661.54c0-12.32,6.27-20.95,16.77-23.09,6.52-1.32,14.1.07,21.93,4C429.09,675.83,498,694,573.63,698.09a6,6,0,0,1-.64,12c-77.32-4.16-147.8-22.77-215.47-56.89-5.32-2.68-10.35-3.74-14.15-3-4.74,1-7.15,4.78-7.15,11.33V1353.1c0,14.65,12.48,33.77,26.7,40.92,65.68,33.12,134.06,51.29,209,55.54a6,6,0,0,1-.33,12Z" transform="translate(-320.22 -531.96)"/><path class="cls-4" d="M571.61,1458.05h-.14c-76.16-4.31-145.63-22.77-212.37-56.42-17-8.56-31.38-30.77-31.38-48.52V661.54c0-10.53,5.22-17.88,14-19.66,5.74-1.16,12.55.12,19.67,3.71,66.6,33.58,136,51.9,212.09,56a2.52,2.52,0,0,1,2.37,2.63,2.46,2.46,0,0,1-2.63,2.37C496.35,702.45,426.33,684,359.1,650.05c-6.11-3.07-11.79-4.21-16.42-3.27-6.42,1.31-10,6.55-10,14.76V1353.1c0,16.07,13.11,36.25,28.63,44.05,66.11,33.34,134.94,51.63,210.4,55.9a2.5,2.5,0,0,1-.14,5Z" transform="translate(-320.22 -531.96)"/><path class="cls-5" d="M625.66,1468.24a12,12,0,0,1-3.68-23.43c32.59-10.51,66.55-23.84,103-40.45a835.21,835.21,0,0,1-102.36-20,12,12,0,0,1-.62-23c32.58-10.51,66.54-23.84,103-40.44a832.58,832.58,0,0,1-102.36-20,12,12,0,0,1-.62-23c32.59-10.51,66.55-23.84,103-40.45a832.58,832.58,0,0,1-102.36-20,12,12,0,0,1-.62-23c32.58-10.51,66.54-23.84,103-40.45a835.21,835.21,0,0,1-102.36-20,12,12,0,0,1-.62-23,958.24,958.24,0,0,0,103-40.45,832.58,832.58,0,0,1-102.36-20,12,12,0,0,1-.62-23c32.58-10.51,66.54-23.84,103-40.45a832.94,832.94,0,0,1-102.36-20,12,12,0,0,1-.62-23c32.59-10.51,66.55-23.84,103-40.45a834.47,834.47,0,0,1-102.36-20,12,12,0,0,1-.62-23c32.59-10.51,66.55-23.84,103-40.44a832.94,832.94,0,0,1-102.36-20,12,12,0,0,1-.62-23c32.59-10.51,66.55-23.85,103-40.45a832.94,832.94,0,0,1-102.36-20,12,12,0,0,1,2.71-23.59c123.16-3.62,249.24-42.34,371.17-79.79,212-65.1,431.13-132.42,648.7-22.71,20.17,10.15,36.59,35.72,36.6,57v691.56c0,11.38-4.55,20.45-12.81,25.54-9.25,5.7-21.85,5.3-34.58-1.1-93.56-47.18-196-64.18-313.26-51.94-105.46,11-213.31,44.12-317.61,76.15-123.45,37.92-251.11,77.13-377.51,80.84Zm42.78-97.78a909,909,0,0,0,100.75,14.75,12,12,0,0,1,4.2,22.7c-21.32,10.53-41.79,20-61.61,28.54,95.22-13.8,191.18-43.28,284.7-72,212-65.1,431.13-132.42,648.7-22.71,5.9,3,9.93,2.88,11.19,2.11.86-.53,1.41-2.53,1.41-5.11V647.18c0-12.45-11.15-29.41-23.39-35.56-93.56-47.18-196-64.17-313.26-51.94-105.46,11-213.31,44.12-317.61,76.15-96.71,29.71-196,60.2-295.24,73.8,19.57,3.07,39.81,5.57,60.91,7.52a12,12,0,0,1,4.2,22.71c-37.24,18.39-71.9,33.6-104.95,46a908.31,908.31,0,0,0,100.75,14.75,12,12,0,0,1,4.2,22.71c-37.24,18.38-71.9,33.6-104.95,46a906,906,0,0,0,100.75,14.74,12,12,0,0,1,4.2,22.71c-37.24,18.39-71.9,33.61-104.95,46.06a908.37,908.37,0,0,0,100.75,14.74,12,12,0,0,1,4.2,22.71c-37.25,18.39-71.91,33.6-104.95,46.05a906,906,0,0,0,100.75,14.75,12,12,0,0,1,4.2,22.71c-37.24,18.38-71.9,33.6-104.95,46a909,909,0,0,0,100.75,14.75,12,12,0,0,1,4.2,22.7c-37.25,18.39-71.91,33.61-104.95,46.06a908.37,908.37,0,0,0,100.75,14.74,12,12,0,0,1,4.2,22.71c-37.24,18.39-71.89,33.6-104.95,46a908.31,908.31,0,0,0,100.75,14.75,12,12,0,0,1,4.2,22.71C736.14,1342.8,701.49,1358,668.44,1370.46Z" transform="translate(-320.22 -531.96)"/><path class="cls-6" d="M625.66,1463.24a7,7,0,0,1-2.15-13.67c37.46-12.08,76.69-27.85,119.36-48a845.5,845.5,0,0,1-119-22.07,7,7,0,0,1-.36-13.43c37.45-12.07,76.68-27.85,119.36-48a848.11,848.11,0,0,1-119-22.07,7,7,0,0,1-.36-13.43c37.46-12.09,76.69-27.86,119.36-48a846.67,846.67,0,0,1-119-22.07,7,7,0,0,1-.36-13.43c37.44-12.08,76.68-27.85,119.35-48a845.62,845.62,0,0,1-119-22.07,7,7,0,0,1-.36-13.43c37.46-12.08,76.69-27.85,119.36-48a845.21,845.21,0,0,1-119-22.08,7,7,0,0,1-.36-13.42c37.44-12.08,76.68-27.85,119.35-48a846.79,846.79,0,0,1-119-22.07,7,7,0,0,1-.36-13.43c37.46-12.08,76.69-27.85,119.36-48a845.23,845.23,0,0,1-119-22.07,7,7,0,0,1-.36-13.43c37.46-12.08,76.69-27.85,119.36-48a846.67,846.67,0,0,1-119-22.07,7,7,0,0,1-.36-13.43c37.46-12.08,76.69-27.86,119.36-48a846.67,846.67,0,0,1-119-22.07,7,7,0,0,1,1.58-13.77c123.84-3.63,250.25-42.45,372.5-80,105.16-32.3,213.91-65.7,321.22-76.89,120.95-12.61,226.86,5,323.76,53.87,18.66,9.38,33.84,33,33.85,52.53v691.56c0,9.58-3.71,17.14-10.44,21.28-7.74,4.77-18.56,4.3-29.71-1.31-94.44-47.62-197.8-64.78-316-52.45-105.95,11-214,44.25-318.55,76.35-123.14,37.82-250.47,76.93-376.2,80.62Zm24.92-91.57c36.93,8.51,75.81,14.59,118.15,18.51a7,7,0,0,1,2.45,13.25c-33.84,16.71-65.54,30.79-95.81,42.54,107.73-10.75,216.72-44.23,322.58-76.74,105.16-32.3,213.91-65.7,321.22-76.89,120.95-12.61,226.86,5,323.76,53.87,6.6,3.32,12.61,4,16.07,1.9,3.12-1.93,3.78-6.16,3.78-9.37V647.18c0-14.32-12.22-33-26.15-40-94.44-47.62-197.8-64.77-316-52.45-105.95,11-214,44.25-318.55,76.35-107.47,33-218.14,67-328.14,77.57a924.19,924.19,0,0,0,94.81,13.51,7,7,0,0,1,2.45,13.25C728,756.7,688.3,773.74,650.58,787.12c36.92,8.51,75.81,14.59,118.15,18.52a7,7,0,0,1,2.45,13.24c-43.19,21.33-82.88,38.37-120.6,51.75a888.81,888.81,0,0,0,118.15,18.51,7,7,0,0,1,2.45,13.25c-43.19,21.33-82.88,38.36-120.6,51.75a889.07,889.07,0,0,0,118.15,18.51,7,7,0,0,1,2.45,13.25c-43.21,21.33-82.89,38.36-120.6,51.74,36.92,8.51,75.8,14.59,118.15,18.52a7,7,0,0,1,2.45,13.24c-43.2,21.33-82.88,38.36-120.6,51.75,36.93,8.51,75.81,14.59,118.15,18.51a7,7,0,0,1,2.45,13.25c-43.21,21.33-82.89,38.37-120.6,51.75a888.81,888.81,0,0,0,118.15,18.51,7,7,0,0,1,2.45,13.25c-43.2,21.32-82.88,38.36-120.6,51.74,36.92,8.51,75.81,14.59,118.15,18.52a7,7,0,0,1,2.45,13.24C728,1341.25,688.29,1358.29,650.58,1371.67Z" transform="translate(-320.22 -531.96)"/><path class="cls-7" d="M625.66,1459.24a3,3,0,0,1-.92-5.86c41.3-13.33,84.74-31.11,132.51-54.27-47.65-4.88-91-12.59-132.36-23.49a3,3,0,0,1-.15-5.75c41.29-13.32,84.74-31.1,132.51-54.26-47.66-4.89-91.06-12.6-132.36-23.49a3,3,0,0,1-.15-5.76c41.3-13.32,84.74-31.1,132.51-54.26-47.66-4.89-91.06-12.59-132.36-23.49a3,3,0,0,1-2.23-2.82,3,3,0,0,1,2.08-2.93c41.29-13.32,84.73-31.11,132.51-54.27-47.65-4.88-91-12.59-132.36-23.48a3,3,0,0,1-.15-5.76c41.3-13.32,84.74-31.11,132.51-54.27-47.66-4.88-91.06-12.59-132.36-23.48a3,3,0,0,1-.15-5.76c41.29-13.31,84.73-31.1,132.51-54.26-47.66-4.89-91.06-12.59-132.36-23.49a3,3,0,0,1-.15-5.75C666,939,709.48,921.23,757.25,898.07c-47.66-4.89-91.06-12.59-132.36-23.48a3,3,0,0,1-.15-5.76c41.3-13.32,84.74-31.11,132.51-54.26-47.66-4.89-91.06-12.6-132.36-23.49a3,3,0,0,1-.15-5.76c41.3-13.32,84.74-31.1,132.51-54.26-47.65-4.89-91-12.59-132.36-23.49a3,3,0,0,1,.68-5.9c124.38-3.65,251-42.55,373.55-80.18,105-32.24,213.54-65.58,320.46-76.73,120.18-12.53,225.35,5,321.55,53.46,17.15,8.63,31.64,31,31.65,49v691.56c0,8.14-3,14.49-8.54,17.88-6.53,4-15.94,3.49-25.81-1.48-95.14-48-199.24-65.27-318.23-52.85-106.34,11.09-214.61,44.34-319.32,76.5-122.88,37.74-250,76.77-375.13,80.44Zm10.67-86.87c41.07,10.24,84.38,17.38,132,21.8a3,3,0,0,1,1,5.67c-44,21.72-84.33,39-122.63,52.44,117.54-7.11,236.79-43.74,352.34-79.23,105-32.24,213.54-65.58,320.46-76.73,120.18-12.54,225.35,5,321.55,53.46,8,4,15.25,4.64,20,1.73,3.71-2.29,5.68-6.71,5.68-12.77V647.18c0-15.63-13.25-36-28.35-43.6-95.14-48-199.24-65.26-318.23-52.86-106.34,11.1-214.61,44.35-319.32,76.51-116.12,35.67-236,72.48-354.47,79.52,38.07,9,78.18,15.31,122,19.36a3,3,0,0,1,1,5.68c-48,23.71-91.67,42.09-133.08,56,41.07,10.24,84.37,17.39,132,21.8a3,3,0,0,1,1,5.68c-48,23.7-91.67,42.08-133.08,56,41.06,10.23,84.37,17.38,132,21.8a3,3,0,0,1,1,5.67c-48,23.71-91.67,42.09-133.08,56,41.07,10.24,84.37,17.39,132,21.8a3,3,0,0,1,1,5.68c-48,23.71-91.68,42.09-133.08,56,41.06,10.24,84.37,17.38,132,21.8a3,3,0,0,1,1,5.68c-48,23.7-91.67,42.08-133.08,56,41.07,10.24,84.38,17.38,132,21.8a3,3,0,0,1,1,5.67c-48,23.72-91.68,42.1-133.08,56,41.06,10.24,84.37,17.39,132,21.8a3,3,0,0,1,1,5.68c-48,23.71-91.67,42.09-133.08,56,41.07,10.24,84.37,17.38,132,21.8a3,3,0,0,1,1,5.68C721.38,1340.05,677.74,1358.43,636.33,1372.37Z" transform="translate(-320.22 -531.96)"/></g></svg>