<?xml version="1.0" encoding="utf-8"?>
<!-- Generator: Adobe Illustrator 26.0.3, SVG Export Plug-In . SVG Version: 6.00 Build 0)  -->
<svg version="1.1" id="Layer" xmlns="http://www.w3.org/2000/svg" xmlns:xlink="http://www.w3.org/1999/xlink" x="0px" y="0px"
	 viewBox="0 0 20 20" style="enable-background:new 0 0 20 20;" xml:space="preserve">
<g>
	<path d="M3.6,8.2C3.6,7,3.7,6,4.1,5.1s0.8-1.6,1.3-2.2c0.6-0.6,1.2-1,2-1.3c0.8-0.3,1.7-0.4,2.6-0.4c1,0,2,0.2,2.7,0.5
		c0.8,0.3,1.5,0.8,2,1.3s0.9,1.2,1.2,2c0.3,0.8,0.4,1.6,0.4,2.5c0,1.7-0.4,3.1-1.2,4.2c-0.8,1.1-1.9,1.9-3.3,2.4l2.8,1.4
		c0.6,0.3,1,0.8,1.2,1.3c0.2,0.6,0.1,1.4-0.4,2.4l-7.3-3.7c-1-0.5-1.8-1-2.4-1.5c-0.6-0.5-1.1-1.1-1.4-1.7c-0.3-0.6-0.6-1.2-0.7-1.9
		C3.6,9.7,3.6,9,3.6,8.2z M9.6,13l0.9,0.4c0.4-0.4,0.8-0.7,1.1-1.1c0.3-0.3,0.6-0.7,0.8-1.1c0.2-0.4,0.4-0.8,0.5-1.3
		C13,9.5,13,8.9,13,8.2c0-1.5-0.3-2.5-0.8-3.2C11.7,4.3,11,4,10,4c-1,0-1.7,0.3-2.2,1C7.3,5.7,7,6.8,7,8.2C7,8.9,7,9.5,7.1,10
		c0.1,0.5,0.3,0.9,0.5,1.3c0.2,0.4,0.5,0.7,0.8,1C8.8,12.5,9.2,12.7,9.6,13z"/>
</g>
</svg>
