<?xml version="1.0" encoding="utf-8"?>
<svg width="20" height="20" xmlns="http://www.w3.org/2000/svg" viewBox="0 0 24 24"
            className="inline-block h-6 w-6 fill-current m-0">
<path d="M3.7,8c0-1.2,0.1-2.2,0.5-3.1S5,3.3,5.5,2.7c0.6-0.6,1.2-1,2-1.3S9.2,1,10.1,1c1,0,2,0.2,2.7,0.5c0.8,0.3,1.5,0.8,2,1.3
	s0.9,1.2,1.2,2c0.3,0.8,0.4,1.6,0.4,2.5c0,1.7-0.4,3.1-1.2,4.2s-1.9,1.9-3.3,2.4l2.8,1.4c0.6,0.3,1,0.8,1.2,1.3
	c0.2,0.6,0.1,1.4-0.4,2.4l-7.3-3.7c-1-0.5-1.8-1-2.4-1.5s-1.1-1.1-1.4-1.7c-0.3-0.6-0.6-1.2-0.7-1.9C3.7,9.5,3.7,8.8,3.7,8z
	 M9.7,12.8l0.9,0.4c0.4-0.4,0.8-0.7,1.1-1.1c0.3-0.3,0.6-0.7,0.8-1.1s0.4-0.8,0.5-1.3c0.1-0.4,0.1-1,0.1-1.7c0-1.5-0.3-2.5-0.8-3.2
	s-1.2-1-2.2-1s-1.7,0.3-2.2,1S7.1,6.6,7.1,8c0,0.7,0,1.3,0.1,1.8s0.3,0.9,0.5,1.3c0.2,0.4,0.5,0.7,0.8,1C8.9,12.3,9.3,12.5,9.7,12.8
	z"/>
</svg>
